<?xml version="1.0" standalone="yes"?>
<svg xmlns="http://www.w3.org/2000/svg" width="767" height="392">
<path style="fill:#fcfcf7; stroke:none;" d="M0 0L0 392L767 392L767 0L0 0z"/>
<path style="fill:#afaecb; stroke:none;" d="M75 13L75 14L79 14L75 13z"/>
<path style="fill:#06aba6; stroke:none;" d="M285 90C281.52 79.3215 276.471 69.1664 269.961 60C229.096 2.46085 157.635 13 96 13C71.8787 13 46.7466 16.5819 28.0147 33.2894C20.9583 39.5831 12.3059 50.8391 14.5332 61C20.2204 86.9455 60.799 81.7181 80 84.4244C88.3088 85.5955 96.7078 88.4816 105 89.1998C143.259 92.5135 183.548 89 222 89C241.833 89 265.702 85.4054 285 90z"/>
<path style="fill:#afaecb; stroke:none;" d="M185 13L185 14L191 14L185 13M69.6667 14.3333L70.3333 14.6667L69.6667 14.3333M195 14L195 15L198 15L195 14M64 15L65 16L64 15M201.667 15.3333L202.333 15.6667L201.667 15.3333M60 16L61 17L60 16M205.667 16.3333L206.333 16.6667L205.667 16.3333M56.6667 17.3333L57.3333 17.6667L56.6667 17.3333M209.667 17.3333L210.333 17.6667L209.667 17.3333M53.6667 18.3333L54.3333 18.6667L53.6667 18.3333M212.667 18.3333L213.333 18.6667L212.667 18.3333M51 19L52 20L51 19M215 19L216 20L215 19M48 20L49 21L48 20M218 20L219 21L218 20M46 21L47 22L46 21M221 21L222 22L221 21M44 22L45 23L44 22M223 22L224 23L223 22M42 23L43 24L42 23M225 23L226 24L225 23M40 24L41 25L40 24M227 24L228 25L227 24M231 26L232 27L231 26M233 27L234 28L233 27M235 28L236 29L235 28M238 30L239 31L238 30M30 31L31 32L30 31M241 32L242 33L241 32M244 34L245 35L244 34M247 36L248 37L247 36M248 37L249 38L248 37M249 38L250 39L249 38M22 39L23 40L22 39M254 42L255 43L254 42M19 43L20 44L19 43M255 43L256 44L255 43M256 44L257 45L256 44M257 45L258 46L257 45M17 46L18 47L17 46M258 46L259 47L258 46M259 47L260 48L259 47M16 48L17 49L16 48M260 48L261 49L260 48M261 49L262 50L261 49M15 50L16 51L15 50M14 52L14 55L15 55L14 52M264 53L265 54L264 53M265 54L266 55L265 54M266 55L267 56L266 55M269 59L270 60L269 59M14 61L15 62L14 61M271 62L272 63L271 62M15 64L16 65L15 64M273 65L274 66L273 65M16 66L17 67L16 66M18 69L19 70L18 69M19 70L20 71L19 70M276 70L277 71L276 70M20 71L21 72L20 71M21 72L22 73L21 72M277 72L278 73L277 72M24 74L25 75L24 74M27 76L28 77L27 76M279 76L280 77L279 76M29 77L30 78L29 77M32 78L33 79L32 78M280 78L281 79L280 78M35 79L36 80L35 79M38.6667 80.3333L39.3333 80.6667L38.6667 80.3333M281 80L282 81L281 80M42.6667 81.3333L43.3333 81.6667L42.6667 81.3333M49 82L49 83L56 83L49 82M68 83L68 84L73 84L68 83M78 84L78 85L81 85L78 84M86.6667 85.3333L87.3333 85.6667L86.6667 85.3333M283 85L284 86L283 85M91.6667 86.3333L92.3333 86.6667L91.6667 86.3333M96.6667 87.3333L97.3333 87.6667L96.6667 87.3333M100.667 88.3333L101.333 88.6667L100.667 88.3333M284 88L285 89L284 88M104 89L105 90L104 89z"/>
<path style="fill:#1479ba; stroke:none;" d="M106 89L106 90C117.723 92.7135 126.105 101.221 137 104.856C160.633 112.74 189.919 112.494 208.757 132.326C213.057 136.853 209.362 140.162 208.196 145C207.459 148.056 208.77 151.071 206.523 153.721C200.342 161.012 177.787 157 169 157C171.085 150.59 172.457 144.814 171.907 138C169.037 102.47 114.179 107.05 114.179 142C114.179 146.868 115.771 151.749 118 156C90.3914 162.573 58.608 148.7 33 165.09C5.23421 182.862 6.69862 214.179 7.96065 243C10.1124 292.139 8 341.802 8 391C38.7358 390.366 86.511 384.645 97 349C101.061 351.844 118.201 353.433 121.914 349.397C125.735 345.243 127.201 335.431 128 330L152 330L152 351L175 351L175 255L145 255L132.51 256.028L124.333 276L105 332L104 332C107.768 302.336 101.086 263.541 131 245.465C138.011 241.228 146.177 239.928 154 238L154 234L154 233L152 233L152 232L154 232L154 231L152 231L152 230L154 230L154 229L154 226L154 225L152 225L152 224L154 224L154 223L152 223L152 222L154 222L154 221L154 218L154 217L152 217L152 216L154 216L154 215L152 215L152 214L154 214L154 213L154 210L154 209L152 209L152 208L154 208L154 207L152 207L152 206L154 206L154 205L154 202L154 201L152 201L152 200L154 200L154 199L152 199L152 198L154 198L154 197L154 194L154 193L152 193L152 192L154 192L154 191L152 191L152 190L154 190L154 189L154 186L154 185L152 185L152 184L154 184L154 183L152 183L152 182L154 182L154 181L154 178L154 177L152 177L152 176L154 176L154 175L152 175L152 174L154 174L154 173L154 170L154 169L152 169L152 168L154 168L154 167L152 167L152 166L154 166L152 165C161.123 162.304 172.511 164 182 164C206.252 164 231.597 166.184 255 158.481C277.076 151.214 292.908 134.291 289.421 110C288.685 104.878 287.775 91.0219 281.867 89.3179C266.212 84.8034 243.337 89 227 89L106 89z"/>
<path style="fill:#afaecb; stroke:none;" d="M48 90L48 91L53 91L48 90z"/>
<path style="fill:#4e84b8; stroke:none;" d="M9 97L9 98C38.9289 103.804 71.3506 112.549 102 111.946C110.308 111.783 118.75 109.048 127 108C96.3359 79.2913 45.1836 92.4031 9 97z"/>
<path style="fill:#afaecb; stroke:none;" d="M74 90L74 91L78 91L74 90M107 90L108 91L107 90z"/>
<path style="fill:#06aba6; stroke:none;" d="M108 90L109 91L108 90z"/>
<path style="fill:#afaecb; stroke:none;" d="M41 91L41 92L44 92L41 91M83.6667 91.3333L84.3333 91.6667L83.6667 91.3333M110 91L111 92L110 91z"/>
<path style="fill:#4e84b8; stroke:none;" d="M111 91L112 92L111 91z"/>
<path style="fill:#afaecb; stroke:none;" d="M285 91L286 92L285 91M35.6667 92.3333L36.3333 92.6667L35.6667 92.3333M89.6667 92.3333L90.3333 92.6667L89.6667 92.3333M113 92L114 93L113 92z"/>
<path style="fill:#06aba6; stroke:none;" d="M114 92L115 93L114 92M285 92L286 93L285 92z"/>
<path style="fill:#afaecb; stroke:none;" d="M29.6667 93.3333L30.3333 93.6667L29.6667 93.3333M93.6667 93.3333L94.3333 93.6667L93.6667 93.3333M115 93L116 94L115 93z"/>
<path style="fill:#4e84b8; stroke:none;" d="M116 93L117 94L116 93z"/>
<path style="fill:#afaecb; stroke:none;" d="M23.6667 94.3333L24.3333 94.6667L23.6667 94.3333M97.6667 94.3333L98.3333 94.6667L97.6667 94.3333M118 94L119 95L118 94M286 94L287 95L286 94M17.6667 95.3333L18.3333 95.6667L17.6667 95.3333M101 95L102 96L101 95M120 95L121 96L120 95z"/>
<path style="fill:#4e84b8; stroke:none;" d="M286 95L287 96L286 95z"/>
<path style="fill:#afaecb; stroke:none;" d="M11.6667 96.3333L12.3333 96.6667L11.6667 96.3333M104 96L105 97L104 96M122 96L123 97L122 96z"/>
<path style="fill:#06aba6; stroke:none;" d="M123 96L124 97L123 96M286 96L287 97L286 96z"/>
<path style="fill:#afaecb; stroke:none;" d="M8 97L9 98L8 97M107 97L108 98L107 97M124 97L125 98L124 97M11 98L12 99L11 98M109 98L110 99L109 98M126 98L127 99L126 98M287 98L288 99L287 98M15.6667 99.3333L16.3333 99.6667L15.6667 99.3333M112 99L113 100L112 99z"/>
<path style="fill:#06aba6; stroke:none;" d="M128 99L129 100L128 99z"/>
<path style="fill:#4e84b8; stroke:none;" d="M287 99L288 100L287 99z"/>
<path style="fill:#afaecb; stroke:none;" d="M20.6667 100.333L21.3333 100.667L20.6667 100.333M114 100L115 101L114 100M129 100L130 101L129 100z"/>
<path style="fill:#06aba6; stroke:none;" d="M287 100L288 101L287 100z"/>
<path style="fill:#afaecb; stroke:none;" d="M25.6667 101.333L26.3333 101.667L25.6667 101.333M116 101L117 102L116 101z"/>
<path style="fill:#06aba6; stroke:none;" d="M131 101L132 102L131 101z"/>
<path style="fill:#afaecb; stroke:none;" d="M288.333 101.667L288.667 102.333L288.333 101.667M30.6667 102.333L31.3333 102.667L30.6667 102.333M118 102L119 103L118 102M132 102L133 103L132 102M35 103L35 104L38 104L35 103M120 103L121 104L120 103M133 103L134 104L133 103z"/>
<path style="fill:#4e84b8; stroke:none;" d="M288 103L289 104L288 103z"/>
<path style="fill:#afaecb; stroke:none;" d="M41.6667 104.333L42.3333 104.667L41.6667 104.333M122 104L123 105L122 104M47.6667 105.333L48.3333 105.667L47.6667 105.333M136 105L137 106L136 105z"/>
<path style="fill:#4e84b8; stroke:none;" d="M137 105L137 106L140 106L137 105z"/>
<path style="fill:#afaecb; stroke:none;" d="M53 106L53 107L56 107L53 106M125 106L126 107L125 106M143 106L143 107L146 107L143 106z"/>
<path style="fill:#4e84b8; stroke:none;" d="M146 106L146 107L149 107L146 106z"/>
<path style="fill:#afaecb; stroke:none;" d="M289 106L289 109L290 109L289 106M60.6667 107.333L61.3333 107.667L60.6667 107.333M151 107L152 108L151 107z"/>
<path style="fill:#4e84b8; stroke:none;" d="M152.667 107.333L153.333 107.667L152.667 107.333z"/>
<path style="fill:#afaecb; stroke:none;" d="M67 108L67 109L70 109L67 108M123.667 108.333L124.333 108.667L123.667 108.333M156 108L157 109L156 108z"/>
<path style="fill:#4e84b8; stroke:none;" d="M157.667 108.333L158.333 108.667L157.667 108.333z"/>
<path style="fill:#afaecb; stroke:none;" d="M74 109L74 110L77 110L74 109M117.667 109.333L118.333 109.667L117.667 109.333M160 109L161 110L160 109z"/>
<path style="fill:#4e84b8; stroke:none;" d="M161 109L162 110L161 109M289.333 109.667L289.667 110.333L289.333 109.667z"/>
<path style="fill:#afaecb; stroke:none;" d="M83 110L83 111L86 111L83 110M111 110L111 111L114 111L111 110M164 110L165 111L164 110z"/>
<path style="fill:#4e84b8; stroke:none;" d="M165 110L166 111L165 110z"/>
<path style="fill:#afaecb; stroke:none;" d="M93 111L93 112L97 112L93 111M106.667 111.333L107.333 111.667L106.667 111.333M167 111L168 112L167 111z"/>
<path style="fill:#4e84b8; stroke:none;" d="M168 111L169 112L168 111z"/>
<path style="fill:#afaecb; stroke:none;" d="M140 112L140 113L147 113L140 112M170 112L171 113L170 112z"/>
<path style="fill:#4e84b8; stroke:none;" d="M171 112L172 113L171 112z"/>
<path style="fill:#afaecb; stroke:none;" d="M135.667 113.333L136.333 113.667L135.667 113.333z"/>
<path style="fill:#4e84b8; stroke:none;" d="M150 113L151 114L150 113z"/>
<path style="fill:#afaecb; stroke:none;" d="M151 113L152 114L151 113M173 113L174 114L173 113z"/>
<path style="fill:#4e84b8; stroke:none;" d="M174 113L175 114L174 113z"/>
<path style="fill:#afaecb; stroke:none;" d="M290 113L290 118L291 118L290 113M132 114L133 115L132 114z"/>
<path style="fill:#4e84b8; stroke:none;" d="M133 114L134 115L133 114M153 114L154 115L153 114z"/>
<path style="fill:#afaecb; stroke:none;" d="M154 114L155 115L154 114z"/>
<path style="fill:#4e84b8; stroke:none;" d="M176 114L177 115L176 114z"/>
<path style="fill:#afaecb; stroke:none;" d="M130 115L131 116L130 115M156 115L157 116L156 115M178 115L179 116L178 115z"/>
<path style="fill:#4e84b8; stroke:none;" d="M179 115L180 116L179 115z"/>
<path style="fill:#afaecb; stroke:none;" d="M128 116L129 117L128 116M158 116L159 117L158 116z"/>
<path style="fill:#4e84b8; stroke:none;" d="M181 116L182 117L181 116M159 117L160 118L159 117z"/>
<path style="fill:#afaecb; stroke:none;" d="M183 117L184 118L183 117M125 118L126 119L125 118M185 118L186 119L185 118M124 119L125 120L124 119z"/>
<path style="fill:#4e84b8; stroke:none;" d="M143 119L143 120L146 120L143 119z"/>
<path style="fill:#afaecb; stroke:none;" d="M162 119L163 120L162 119M187 119L188 120L187 119M290.333 119.667L290.667 120.333L290.333 119.667z"/>
<path style="fill:#4e84b8; stroke:none;" d="M123 120L124 121L123 120M137 120L138 121L137 120z"/>
<path style="fill:#afaecb; stroke:none;" d="M138 120L139 121L138 120z"/>
<path style="fill:#fcfcf7; stroke:none;" d="M139 120.529C110.685 127.062 121.879 168.736 150 162.61C176.429 156.852 165.485 114.419 139 120.529z"/>
<path style="fill:#afaecb; stroke:none;" d="M149 120L150 121L149 120z"/>
<path style="fill:#4e84b8; stroke:none;" d="M150 120L151 121L150 120z"/>
<path style="fill:#afaecb; stroke:none;" d="M163 120L164 121L163 120M189 120L190 121L189 120z"/>
<path style="fill:#4e84b8; stroke:none;" d="M122 121L123 122L122 121z"/>
<path style="fill:#afaecb; stroke:none;" d="M135 121L136 122L135 121M152 121L153 122L152 121M164 121L165 122L164 121M191 121L192 122L191 121z"/>
<path style="fill:#06aba6; stroke:none;" d="M290 121C275.417 177.222 196.29 164 152 164L152 165L154 166L152 166L152 167L154 167L154 168L152 168L152 169L154 169L154 170L152 170L154 173L154 174L152 174L152 175L154 175L154 176L152 176L152 177L154 177L154 178C151.07 178.586 151.512 180.502 154 181L154 182L152 182L152 183L154 183L154 184L152 184L152 185L154 185L154 186C151.07 186.586 151.512 188.502 154 189L154 190L152 190L152 191L154 191L154 192L152 192L152 193L154 193L154 194C151.07 194.586 151.512 196.502 154 197L154 198L152 198L152 199L154 199L154 200L152 200L152 201L154 201L154 202C151.07 202.586 151.512 204.502 154 205L154 206L152 206L152 207L154 207L154 208L152 208L152 209L154 209L154 210C151.07 210.586 151.512 212.502 154 213L154 214L152 214L152 215L154 215L154 216L152 216L152 217L154 217L154 218C151.07 218.586 151.512 220.502 154 221L154 222L152 222L152 223L154 223L154 224L152 224L152 225L154 225L154 226C151.07 226.586 151.512 228.502 154 229L154 230L152 230L152 231L154 231L154 232L152 232L152 233L154 233L154 234L152 237C203.881 249.352 262.097 216.94 281.988 169C286.857 157.268 295.185 133.385 290 121z"/>
<path style="fill:#4e84b8; stroke:none;" d="M121 122L122 123L121 122z"/>
<path style="fill:#afaecb; stroke:none;" d="M133 122L134 123L133 122M154 122L155 123L154 122M165 122L166 123L165 122M193 122L194 123L193 122M120 123L121 124L120 123M131 123L132 124L131 123M156 123L157 124L156 123M166 123L167 124L166 123M195 123L196 124L195 123M119 124L120 125L119 124M130 124L131 125L130 124M157 124L158 125L157 124M197 124L198 125L197 124M158 125L159 126L158 125z"/>
<path style="fill:#4e84b8; stroke:none;" d="M118 126L119 127L118 126M127 126L128 127L127 126z"/>
<path style="fill:#afaecb; stroke:none;" d="M159 126L160 127L159 126M168 126L169 127L168 126M200 126L201 127L200 126M117 127L118 128L117 127M160 127L161 128L160 127M202 127L203 128L202 127z"/>
<path style="fill:#4e84b8; stroke:none;" d="M117 128L118 129L117 128z"/>
<path style="fill:#afaecb; stroke:none;" d="M126 128L127 129L126 128M161 128L162 129L161 128M169 128L170 129L169 128M203 128L204 129L203 128M116 129L117 130L116 129M125 129L126 130L125 129z"/>
<path style="fill:#4e84b8; stroke:none;" d="M162 129L163 130L162 129z"/>
<path style="fill:#afaecb; stroke:none;" d="M205 129L206 130L205 129M290 129L290 137L291 137L290 129z"/>
<path style="fill:#4e84b8; stroke:none;" d="M116 130L117 131L116 130z"/>
<path style="fill:#afaecb; stroke:none;" d="M162 130L163 131L162 130M170 130L171 131L170 130M124 131L125 132L124 131z"/>
<path style="fill:#4e84b8; stroke:none;" d="M163 131L164 132L163 131M170 131L171 132L170 131z"/>
<path style="fill:#afaecb; stroke:none;" d="M208 131L209 132L208 131M115 132L116 133L115 132z"/>
<path style="fill:#4e84b8; stroke:none;" d="M123 132L124 133L123 132z"/>
<path style="fill:#afaecb; stroke:none;" d="M171.333 132.667L171.667 133.333L171.333 132.667M209 132L210 133L209 132z"/>
<path style="fill:#4e84b8; stroke:none;" d="M115 133L116 134L115 133z"/>
<path style="fill:#afaecb; stroke:none;" d="M123 133L124 134L123 133z"/>
<path style="fill:#4e84b8; stroke:none;" d="M164 133L165 134L164 133z"/>
<path style="fill:#afaecb; stroke:none;" d="M210 133L211 134L210 133M164 134L165 135L164 134z"/>
<path style="fill:#4e84b8; stroke:none;" d="M171 134L172 135L171 134z"/>
<path style="fill:#afaecb; stroke:none;" d="M114.333 135.667L114.667 136.333L114.333 135.667z"/>
<path style="fill:#4e84b8; stroke:none;" d="M122 135L123 136L122 135z"/>
<path style="fill:#afaecb; stroke:none;" d="M211.333 135.667L211.667 136.333L211.333 135.667M122 136L123 137L122 136z"/>
<path style="fill:#4e84b8; stroke:none;" d="M165 136L166 137L165 136z"/>
<path style="fill:#afaecb; stroke:none;" d="M172 136L172 140L173 140L172 136z"/>
<path style="fill:#4e84b8; stroke:none;" d="M114.333 137.667L114.667 138.333L114.333 137.667z"/>
<path style="fill:#afaecb; stroke:none;" d="M165 137L165 141L166 141L165 137z"/>
<path style="fill:#4e84b8; stroke:none;" d="M211 137L212 138L211 137z"/>
<path style="fill:#afaecb; stroke:none;" d="M210 139L211 140L210 139z"/>
<path style="fill:#4e84b8; stroke:none;" d="M121 140L121 143L122 143L121 140M172 140L172 145L173 145L172 140M210 140L211 141L210 140z"/>
<path style="fill:#afaecb; stroke:none;" d="M209 141L210 142L209 141M289 141L289 144L290 144L289 141M165.333 143.667L165.667 144.333L165.333 143.667z"/>
<path style="fill:#4e84b8; stroke:none;" d="M208 143L209 144L208 143z"/>
<path style="fill:#afaecb; stroke:none;" d="M207 144L208 145L207 144z"/>
<path style="fill:#4e84b8; stroke:none;" d="M114.333 145.667L114.667 146.333L114.333 145.667z"/>
<path style="fill:#afaecb; stroke:none;" d="M122 145L122 148L123 148L122 145z"/>
<path style="fill:#4e84b8; stroke:none;" d="M165.333 145.667L165.667 146.333L165.333 145.667z"/>
<path style="fill:#afaecb; stroke:none;" d="M172.333 145.667L172.667 146.333L172.333 145.667z"/>
<path style="fill:#4e84b8; stroke:none;" d="M207 145L208 146L207 145z"/>
<path style="fill:#afaecb; stroke:none;" d="M114.333 147.667L114.667 148.333L114.333 147.667z"/>
<path style="fill:#4e84b8; stroke:none;" d="M207 147L208 148L207 147z"/>
<path style="fill:#afaecb; stroke:none;" d="M288.333 147.667L288.667 148.333L288.333 147.667M164 148L165 149L164 148M123 149L124 150L123 149z"/>
<path style="fill:#4e84b8; stroke:none;" d="M164 149L165 150L164 149M171 149L172 150L171 149M208 149L209 150L208 149M115 150L116 151L115 150M123 150L124 151L123 150z"/>
<path style="fill:#afaecb; stroke:none;" d="M171 150L172 151L171 150M208 150L209 151L208 150M115 151L116 152L115 151M163 151L164 152L163 151z"/>
<path style="fill:#4e84b8; stroke:none;" d="M208 151L209 152L208 151z"/>
<path style="fill:#afaecb; stroke:none;" d="M287.333 151.667L287.667 152.333L287.333 151.667M124 152L125 153L124 152z"/>
<path style="fill:#4e84b8; stroke:none;" d="M170 152L171 153L170 152M116 153L117 154L116 153z"/>
<path style="fill:#afaecb; stroke:none;" d="M162 153L163 154L162 153M170 153L171 154L170 153M207 153L208 154L207 153M161 154L162 155L161 154M206 154L207 155L206 154z"/>
<path style="fill:#4e84b8; stroke:none;" d="M117 155L118 156L117 155M126 155L127 156L126 155z"/>
<path style="fill:#afaecb; stroke:none;" d="M169 155L170 156L169 155M205 155L206 156L205 155M286.333 155.667L286.667 156.333L286.333 155.667M60 156L60 157L69 157L60 156z"/>
<path style="fill:#4e84b8; stroke:none;" d="M69 156L69 157L117 157C104.586 151.791 82.5265 156 69 156z"/>
<path style="fill:#afaecb; stroke:none;" d="M127 156L128 157L127 156z"/>
<path style="fill:#4e84b8; stroke:none;" d="M160 156L161 157L160 156M169 156L169 157L203 157L169 156z"/>
<path style="fill:#afaecb; stroke:none;" d="M52.6667 157.333L53.3333 157.667L52.6667 157.333z"/>
<path style="fill:#4e84b8; stroke:none;" d="M54 157L55 158L54 157z"/>
<path style="fill:#afaecb; stroke:none;" d="M128 157L129 158L128 157z"/>
<path style="fill:#4e84b8; stroke:none;" d="M159 157L160 158L159 157z"/>
<path style="fill:#afaecb; stroke:none;" d="M47.6667 158.333L48.3333 158.667L47.6667 158.333z"/>
<path style="fill:#4e84b8; stroke:none;" d="M49 158L50 159L49 158z"/>
<path style="fill:#afaecb; stroke:none;" d="M129 158L130 159L129 158z"/>
<path style="fill:#4e84b8; stroke:none;" d="M158 158L159 159L158 158z"/>
<path style="fill:#afaecb; stroke:none;" d="M44 159L45 160L44 159z"/>
<path style="fill:#4e84b8; stroke:none;" d="M45 159L46 160L45 159z"/>
<path style="fill:#afaecb; stroke:none;" d="M130 159L131 160L130 159M285 159L286 160L285 159M41 160L42 161L41 160z"/>
<path style="fill:#4e84b8; stroke:none;" d="M42 160L43 161L42 160z"/>
<path style="fill:#afaecb; stroke:none;" d="M132 160L133 161L132 160M155 160L156 161L155 160M39 161L40 162L39 161M134 161L135 162L134 161M153 161L154 162L153 161M37 162L38 163L37 162z"/>
<path style="fill:#4e84b8; stroke:none;" d="M135 162L136 163L135 162z"/>
<path style="fill:#afaecb; stroke:none;" d="M136.667 162.333L137.333 162.667L136.667 162.333M151 162L152 163L151 162M284 162L285 163L284 162M35 163L36 164L35 163z"/>
<path style="fill:#4e84b8; stroke:none;" d="M138.667 163.333L139.333 163.667L138.667 163.333z"/>
<path style="fill:#afaecb; stroke:none;" d="M140 163L140 164L148 164L140 163z"/>
<path style="fill:#4e84b8; stroke:none;" d="M148 163L149 164L148 163z"/>
<path style="fill:#afaecb; stroke:none;" d="M33 164L34 165L33 164z"/>
<path style="fill:#4e84b8; stroke:none;" d="M32 165L33 166L32 165z"/>
<path style="fill:#afaecb; stroke:none;" d="M283 165L284 166L283 165M30 166L31 167L30 166M29 167L30 168L29 167M282.333 167.667L282.667 168.333L282.333 167.667z"/>
<path style="fill:#4e84b8; stroke:none;" d="M28 168L29 169L28 168z"/>
<path style="fill:#afaecb; stroke:none;" d="M25 170L26 171L25 170M281 170L282 171L281 170M24 171L25 172L24 171M23 172L24 173L23 172M280 172L281 173L280 172M22 173L23 174L22 173M21 174L22 175L21 174M279 174L280 175L279 174z"/>
<path style="fill:#4e84b8; stroke:none;" d="M20 176L21 177L20 176z"/>
<path style="fill:#afaecb; stroke:none;" d="M278 176L279 177L278 176z"/>
<path style="fill:#4e84b8; stroke:none;" d="M19 177L20 178L19 177z"/>
<path style="fill:#afaecb; stroke:none;" d="M18 178L19 179L18 178M277 178L278 179L277 178z"/>
<path style="fill:#4e84b8; stroke:none;" d="M17 180L18 181L17 180z"/>
<path style="fill:#afaecb; stroke:none;" d="M276 180L277 181L276 180M16 181L17 182L16 181z"/>
<path style="fill:#4e84b8; stroke:none;" d="M15 183L16 184L15 183z"/>
<path style="fill:#afaecb; stroke:none;" d="M274 183L275 184L274 183M14 184L15 185L14 184z"/>
<path style="fill:#4e84b8; stroke:none;" d="M14 185L15 186L14 185z"/>
<path style="fill:#afaecb; stroke:none;" d="M273 185L274 186L273 185M13 186L14 187L13 186z"/>
<path style="fill:#4e84b8; stroke:none;" d="M13 187L14 188L13 187z"/>
<path style="fill:#afaecb; stroke:none;" d="M12 188L13 189L12 188M271 188L272 189L271 188z"/>
<path style="fill:#4e84b8; stroke:none;" d="M12 189L13 190L12 189z"/>
<path style="fill:#afaecb; stroke:none;" d="M11 190L12 191L11 190z"/>
<path style="fill:#4e84b8; stroke:none;" d="M11 191L12 192L11 191z"/>
<path style="fill:#afaecb; stroke:none;" d="M268 192L269 193L268 192M10 193L11 194L10 193z"/>
<path style="fill:#4e84b8; stroke:none;" d="M10 194L11 195L10 194z"/>
<path style="fill:#afaecb; stroke:none;" d="M9 196L10 197L9 196M265 196L266 197L265 196z"/>
<path style="fill:#4e84b8; stroke:none;" d="M9 197L10 198L9 197z"/>
<path style="fill:#afaecb; stroke:none;" d="M8 200L9 201L8 200z"/>
<path style="fill:#4e84b8; stroke:none;" d="M8 201L9 202L8 201z"/>
<path style="fill:#afaecb; stroke:none;" d="M258 204L259 205L258 204M7.33333 205.667L7.66667 206.333L7.33333 205.667M257 205L258 206L257 205z"/>
<path style="fill:#4e84b8; stroke:none;" d="M7.33333 207.667L7.66667 208.333L7.33333 207.667z"/>
<path style="fill:#afaecb; stroke:none;" d="M249 212L250 213L249 212M248 213L249 214L248 213M245 215L246 216L245 215M241 218L242 219L241 218M238 220L239 221L238 220M233 223L234 224L233 223M231 224L232 225L231 224M229 225L230 226L229 225M227 226L228 227L227 226M225 227L226 228L225 227M223 228L224 229L223 228M221 229L222 230L221 229M218 230L219 231L218 230M215 231L216 232L215 231M212.667 232.333L213.333 232.667L212.667 232.333M209.667 233.333L210.333 233.667L209.667 233.333M205.667 234.333L206.333 234.667L205.667 234.333M201.667 235.333L202.333 235.667L201.667 235.333z"/>
<path style="fill:#4e84b8; stroke:none;" d="M194 236L195 237L194 236z"/>
<path style="fill:#afaecb; stroke:none;" d="M195 236L195 237L198 237L195 236M141 241L141 242C153.402 242 179.805 236.711 186.543 250.004C190.421 257.654 188 270.585 188 279L189 279C190.016 270.785 185.93 258.43 192 252L192 258L193 258C193.731 242.04 206.331 242 219 242C242.207 242 258.494 241.423 278 255L276 252L280 255L281 255C283.134 234.298 322.687 238.306 330 253C333.268 249.592 335.496 245.092 340.015 243.09C350.421 238.479 383.655 239.085 381.992 256C380.839 267.733 366.645 283.161 360.308 293C357.841 296.829 353.641 301.239 353.409 306C352.699 320.574 371.147 342.12 363.846 355.996C359.767 363.747 351.65 364 344 364C330.67 364.001 318.468 365.258 314 350L313 350L315 358L314 358L313 354L312 354C309.985 359.877 305.239 363.372 299 363.906C282.265 365.339 264.808 364.001 248 364C239.379 363.999 232.382 363.37 228 355L226 355C218.186 369.926 196.401 363.074 183 362.509C173.249 362.099 163.031 364.464 153 363.96C146.636 363.64 141.954 360.573 139 355L135 356L136 352L135 352C130.232 368.051 102.477 367.271 90 361L88 365C105.099 374.589 120.975 363.715 138 365.34C143.122 365.829 147.869 368.275 153 368.826C171.106 370.772 190.789 369.433 209 368.985C215.091 368.836 220.947 366.341 227 366.341C232.385 366.341 237.63 368.534 243 368.91C264.311 370.404 288.142 370.706 309 366.514C325.737 363.15 347.751 377.165 362.957 363.775C380.886 347.988 358.084 324.641 361.329 306C364.708 286.584 397.717 265.804 382.892 245.093C369.902 226.947 344.614 242.187 328 239.671C316.037 237.86 305.267 235.272 293 237.326C286.914 238.344 281.16 243.38 275 243.154C269.574 242.954 264.261 239.644 259 238.428C250.79 236.531 241.418 236.104 233 236.004C223.748 235.894 214.125 235.754 205 237.468C200.025 238.402 195.116 241.939 190 241.686C185.482 241.462 181.538 238.534 177 238.104C164.806 236.95 152.882 238.549 141 241M422 236.424C414.329 237.432 407.08 237.447 401.105 243.188C393.018 250.958 392.317 262.611 390.87 273C388.489 290.083 385.107 306.996 382.247 324C379.868 338.145 373.126 358.648 390.001 366.586C397.575 370.149 406.88 369 415 369L462 369C472.865 369 484.187 369.911 495 368.829C500.733 368.256 506.282 365.187 512 365.187C523.601 365.187 534.84 369.498 547 368.961C553.098 368.691 558.914 366.079 565 366.079C579.263 366.079 592.199 372.485 607 370.715C616.269 369.606 625.658 368.116 634 363.677C638.9 361.069 644.523 354.173 649.985 353.443C655.331 352.729 659.626 362.909 664.015 365.467C672.564 370.448 687.54 370.491 697 368.319C705.841 366.29 711.279 360.46 713.971 352C717.979 339.408 718.083 326.731 724.876 315C734.916 297.663 752.461 282.178 758.895 263C762.194 253.165 758.721 243.062 749 238.88C739.723 234.889 725.545 235.248 716 238.221C711.292 239.687 705.999 244.735 701 244.357C694.757 243.886 689.55 238.012 683 237.184C669.25 235.445 657.368 239.863 644 239.82C631.31 239.779 619.123 235.464 606 236.039C593.671 236.58 582.42 245.879 571 246.193C565.942 246.332 561.41 241.168 557 239.185C551.755 236.826 545.653 236.708 540 236.17C523.878 234.636 508.578 240.305 493 239.87C469.39 239.211 446.099 233.259 422 236.424z"/>
<path style="fill:#4e84b8; stroke:none;" d="M183 237L183 238L186 238L183 237z"/>
<path style="fill:#afaecb; stroke:none;" d="M186 237L186 238L191 238L186 237M7 238L7 275L8 275C8 264.351 11.1113 247.798 7 238z"/>
<path style="fill:#4e84b8; stroke:none;" d="M152.667 238.333L153.333 238.667L152.667 238.333M146.667 239.333L147.333 239.667L146.667 239.333M143 240L144 241L143 240M140 241L141 242L140 241z"/>
<path style="fill:#fcfcf7; stroke:none;" d="M563 265C570.931 238.168 540.909 242 524 242C517.326 242 508.275 240.435 502.004 243.009C496.786 245.151 494.786 249.782 494 255L493 255C491.819 250.03 489.987 245.314 484.985 243.09C479.81 240.788 472.542 242 467 242L428 242C421.045 242 410.98 240.14 405.108 244.653C398.302 249.885 398.389 263.156 397.08 271C393.904 290.035 390.096 308.965 386.92 328C385.651 335.606 382.058 345.325 383.355 353C385.888 367.993 407.176 364 418 364L478 364C486.194 364.013 497.576 366.002 504.895 361.583C510.183 358.39 511.703 350.608 513 345L514 345C514 350.171 513.276 355.766 517.228 359.775C525.847 368.52 557.203 366.906 563 356C584.083 371.27 627.318 369.789 644.671 348.996C655.998 335.424 655.285 316.323 649 301L656 292L658 292C659.855 300.018 665.19 308.686 664.79 317C664.248 328.278 655.556 345.294 660.228 355.96C665.46 367.902 700.185 368.278 706.992 357.906C714.113 347.053 710.127 330.635 715.674 319C722.852 303.943 735.462 289.593 745.141 276C749.364 270.07 756.542 262.644 756.852 255C757.513 238.688 722.904 237.838 713.04 244.009C706.735 247.954 703.725 256.443 699 262C697.776 256.66 696.676 249.507 692.606 245.533C686.073 239.152 664.532 240.596 656 242.344C652.224 243.118 649.653 246.688 646 247.279C639.731 248.293 628.97 241.844 622 241.17C607.329 239.75 589.286 241.872 577.015 250.573C571.388 254.563 567.987 260.446 563 265z"/>
<path style="fill:#4e84b8; stroke:none;" d="M136 242L137 243L136 242z"/>
<path style="fill:#afaecb; stroke:none;" d="M137 242L138 243L137 242z"/>
<path style="fill:#fcfcf7; stroke:none;" d="M106 324L107 324C110.981 307.202 118.373 290.187 124.424 274C126.427 268.644 127.802 259.343 132.394 255.603C136.558 252.212 145.933 254 151 254C156.285 254 171.686 251.393 174.972 256.318C178.607 261.766 176 275.582 176 282L176 351L151 351L151 330L129 330C127.831 335.055 126.088 346.973 121.581 349.972C109.811 357.805 97.752 343.558 91 362C99.2333 365.962 123.574 367 130.786 360.581C135.028 356.806 136.277 350.366 137 345L138 345C138.003 370.809 163.798 363.53 182 362.839C187.207 362.641 192.68 364 198 364C207.903 364 221.999 366.663 226 355L228 355C231.29 364.59 240.434 364 249 364C265.471 364 287.093 367.622 303 363.442C309.7 361.681 312.433 356.446 313 350L314 350C317.416 366.279 331.631 364.001 345 364C352.436 364 360.81 363.942 364.343 355.996C371.008 341.01 352.505 321.333 353.745 306C354.097 301.644 358.032 297.533 360.308 294C365.64 285.722 370.78 277.315 376.053 269C379.245 263.968 383.666 258.397 382.106 252C378.968 239.127 347.723 238.096 338.093 243.573C334.428 245.657 332.29 249.616 330 253C325.413 239.882 295.96 236.411 285.214 244.854C281.175 248.027 280.887 253.559 279 258C268.388 237.558 239.099 242 220 242C212.909 242 202.887 240.137 197.225 245.394C190.429 251.703 189.702 270.119 189 279C186.146 269.345 191.749 255.5 185.347 247.105C179.241 239.098 164.837 242 156 242C149.957 242 142.782 240.957 137 242.966C104.179 254.373 107.194 296.197 106 324z"/>
<path style="fill:#4e84b8; stroke:none;" d="M134 243L135 244L134 243z"/>
<path style="fill:#afaecb; stroke:none;" d="M135 243L136 244L135 243z"/>
<path style="fill:#4e84b8; stroke:none;" d="M132 244L133 245L132 244z"/>
<path style="fill:#afaecb; stroke:none;" d="M133 244L134 245L133 244z"/>
<path style="fill:#4e84b8; stroke:none;" d="M130 245L131 246L130 245z"/>
<path style="fill:#afaecb; stroke:none;" d="M131 245L132 246L131 245M129 246L130 247L129 246z"/>
<path style="fill:#4e84b8; stroke:none;" d="M127 247L128 248L127 247M645.667 247.333L646.333 247.667L645.667 247.333z"/>
<path style="fill:#afaecb; stroke:none;" d="M126 248L127 249L126 248z"/>
<path style="fill:#4e84b8; stroke:none;" d="M329 248L331 251L332 248L329 248M492 248L493 252L494 252L495 248L492 248z"/>
<path style="fill:#afaecb; stroke:none;" d="M645.667 248.333L646.333 248.667L645.667 248.333M125 249L126 250L125 249M494 249L494 252L495 252L494 249z"/>
<path style="fill:#4e84b8; stroke:none;" d="M123 250L124 251L123 250M122 251L123 252L122 251M121 252L122 253L121 252M191 252L189 271L190 271L191 252M276 252L280 256L280 252L276 252M120 253L121 254L120 253z"/>
<path style="fill:#afaecb; stroke:none;" d="M611 253L611 254L619 254L611 253M132 254L132 255L175 255C163.774 250.29 144.219 254 132 254M206 254L206 255L249 255C237.774 250.29 218.219 254 206 254M294 254L294 255L318 256C312.4 251.758 300.85 254 294 254M345 254L345 255L369 255L345 254M414 254L414 255L480 255L459 254L414 254M506 255L506 256L551 255C541.25 250.909 516.123 252.008 506 255M601.667 254.333L602.333 254.667L601.667 254.333z"/>
<path style="fill:#4e84b8; stroke:none;" d="M603.667 254.333L604.333 254.667L603.667 254.333z"/>
<path style="fill:#1479ba; stroke:none;" d="M589 320C583.324 320 573.454 318.076 568.318 320.603C560.23 324.583 568.498 342.993 573.015 346.606C579.737 351.983 588.837 352 597 352C618.359 352 640 346.754 640 321C640 317.225 639.999 313.529 638.467 310C633.928 299.544 621.994 296.99 612 294.371C606.481 292.925 598.118 290.527 596.762 283.985C594.233 271.785 618.412 269.589 622.243 280.015C623.464 283.337 622.004 286.831 621 290C626.602 290 637.806 292.151 642.581 288.972C651.662 282.927 645.801 264.834 638.96 259.8C615.414 242.477 558.971 260.263 574.533 295.999C579.261 306.856 591.891 309.323 602 312.671C607.118 314.365 614.546 317.148 616.149 323.004C617.759 328.886 610.753 332.499 606 332.906C596.56 333.714 589.243 330.066 589 320z"/>
<path style="fill:#4e84b8; stroke:none;" d="M624.667 254.333L625.333 254.667L624.667 254.333z"/>
<path style="fill:#afaecb; stroke:none;" d="M626 254L627 255L626 254M659 254L659 255L684 255L659 254z"/>
<path style="fill:#4e84b8; stroke:none;" d="M698 254L699 261L700 261L704 254L698 254z"/>
<path style="fill:#afaecb; stroke:none;" d="M719 255L719 256L744 256C740.125 251.566 724.348 253.419 719 255z"/>
<path style="fill:#4e84b8; stroke:none;" d="M131 255L132 256L131 255z"/>
<path style="fill:#afaecb; stroke:none;" d="M175 255L175 269L176 269L175 255z"/>
<path style="fill:#1479ba; stroke:none;" d="M206 255L190 351L214 351L219 315C234.305 315.012 237.025 338.14 240 351L266 351L254 311C269.124 305.125 278.403 268.848 262.985 258.995C248.817 249.94 222.176 255 206 255z"/>
<path style="fill:#4e84b8; stroke:none;" d="M253 255L254 256L253 255z"/>
<path style="fill:#afaecb; stroke:none;" d="M254.667 255.333L255.333 255.667L254.667 255.333z"/>
<path style="fill:#4e84b8; stroke:none;" d="M293 255L293 258L294 258L293 255z"/>
<path style="fill:#1479ba; stroke:none;" d="M294 255L277 351L300 351L306 315C309.136 315 313.838 314.179 316.57 316.028C325.381 321.991 321.331 341.562 328.139 349.397C331.767 353.572 346.768 351 352 351C349.118 337.075 338.102 318.085 339.578 304C340.156 298.486 345.4 292.532 348.343 288C355.378 277.171 362.738 266.291 369 255C362.279 255 348.69 252.391 343.518 257.318C331.844 268.436 328.604 294.986 310 295L317 255L294 255z"/>
<path style="fill:#4e84b8; stroke:none;" d="M344 255L345 256L344 255M413 255L414 256L413 255z"/>
<path style="fill:#1479ba; stroke:none;" d="M397 351L463 351L466 330L423 330L426 314L462 314L465 294L430 294L433.742 276.603L445 275L476 275L479 255L432 255L414.6 256.028L409.197 280L397 351z"/>
<path style="fill:#4e84b8; stroke:none;" d="M479 255L479 258L480 258L479 255z"/>
<path style="fill:#1479ba; stroke:none;" d="M507 255L473 351L498 351C499.094 345.715 500.629 334.21 505.419 331.028C510.373 327.736 522.181 330 528 330L527 351L551 351L550 255L507 255z"/>
<path style="fill:#4e84b8; stroke:none;" d="M550 255L550 269L551 269L550 255M565 255L564 263L569 256L565 255z"/>
<path style="fill:#afaecb; stroke:none;" d="M597 255L598 256L597 255z"/>
<path style="fill:#4e84b8; stroke:none;" d="M598 255L599 256L598 255M629 255L630 256L629 255z"/>
<path style="fill:#afaecb; stroke:none;" d="M630 255L631 256L630 255z"/>
<path style="fill:#1479ba; stroke:none;" d="M659 255C664.952 273.292 677.292 294.835 678.776 314C679.694 325.849 674.496 339.222 673 351L696 351L703.046 314L743 255C736.752 255 723.665 252.474 719.04 257.318C712.967 263.679 708.552 272.693 703.667 280C702.063 282.398 699.534 287.793 696.104 287.793C692.893 287.793 692.07 282.263 691.33 280C688.65 271.799 685.749 263.453 684 255L659 255z"/>
<path style="fill:#afaecb; stroke:none;" d="M703 255L702 258L703 255M118 256L119 257L118 256M205.333 256.667L205.667 257.333L205.333 256.667z"/>
<path style="fill:#4e84b8; stroke:none;" d="M257 256L258 257L257 256z"/>
<path style="fill:#afaecb; stroke:none;" d="M258 256L259 257L258 256M278 256L280 258L280 256L278 256z"/>
<path style="fill:#4e84b8; stroke:none;" d="M316 256L316 259L317 259L316 256M343 256L344 257L343 256z"/>
<path style="fill:#afaecb; stroke:none;" d="M368 256L369 257L368 256z"/>
<path style="fill:#4e84b8; stroke:none;" d="M506.333 256.667L506.667 257.333L506.333 256.667z"/>
<path style="fill:#afaecb; stroke:none;" d="M593 256L594 257L593 256z"/>
<path style="fill:#4e84b8; stroke:none;" d="M594 256L595 257L594 256M632 256L633 257L632 256z"/>
<path style="fill:#afaecb; stroke:none;" d="M633 256L634 257L633 256z"/>
<path style="fill:#4e84b8; stroke:none;" d="M659 256L660 257L659 256z"/>
<path style="fill:#afaecb; stroke:none;" d="M684 256L685 257L684 256z"/>
<path style="fill:#4e84b8; stroke:none;" d="M719 256L720 257L719 256M742 256L743 257L742 256M117 257L118 258L117 257z"/>
<path style="fill:#afaecb; stroke:none;" d="M130 257L131 258L130 257z"/>
<path style="fill:#4e84b8; stroke:none;" d="M260 257L261 258L260 257z"/>
<path style="fill:#afaecb; stroke:none;" d="M261 257L262 258L261 257M342 257L343 258L342 257z"/>
<path style="fill:#4e84b8; stroke:none;" d="M367 257L368 258L367 257z"/>
<path style="fill:#afaecb; stroke:none;" d="M412.333 257.667L412.667 258.333L412.333 257.667M590 257L591 258L590 257z"/>
<path style="fill:#4e84b8; stroke:none;" d="M591 257L592 258L591 257M635 257L636 258L635 257z"/>
<path style="fill:#afaecb; stroke:none;" d="M659 257L660 258L659 257z"/>
<path style="fill:#4e84b8; stroke:none;" d="M684 257L685 258L684 257z"/>
<path style="fill:#afaecb; stroke:none;" d="M698 257L698 260L699 260L698 257z"/>
<path style="fill:#4e84b8; stroke:none;" d="M718 257L719 258L718 257M741 257L742 258L741 257M116 258L117 259L116 258M130 258L131 259L130 258M205 258L205 261L206 261L205 258M262 258L263 259L262 258M342 258L343 259L342 258z"/>
<path style="fill:#afaecb; stroke:none;" d="M367 258L368 259L367 258M479.333 258.667L479.667 259.333L479.333 258.667M505 258L506 259L505 258M568 258L569 259L568 258M588 258L589 259L588 258z"/>
<path style="fill:#4e84b8; stroke:none;" d="M589 258L590 259L589 258z"/>
<path style="fill:#afaecb; stroke:none;" d="M637 258L638 259L637 258M701.333 258.667L701.667 259.333L701.333 258.667M717 258L718 259L717 258M741 258L742 259L741 258M116 259L117 260L116 259M129.333 259.667L129.667 260.333L129.333 259.667M191 259L191 264L192 264L191 259M264 259L265 260L264 259M292.333 259.667L292.667 260.333L292.333 259.667M316.333 259.667L316.667 260.333L316.333 259.667M341 259L342 260L341 259z"/>
<path style="fill:#4e84b8; stroke:none;" d="M366 259L367 260L366 259M412 259L412 262L413 262L412 259M505 259L506 260L505 259z"/>
<path style="fill:#afaecb; stroke:none;" d="M567 259L568 260L567 259M586 259L587 260L586 259z"/>
<path style="fill:#4e84b8; stroke:none;" d="M587 259L588 260L587 259M638 259L639 260L638 259M660 259L661 260L660 259z"/>
<path style="fill:#afaecb; stroke:none;" d="M685 259L686 260L685 259z"/>
<path style="fill:#4e84b8; stroke:none;" d="M717 259L718 260L717 259M740 259L741 260L740 259M115 260L116 261L115 260z"/>
<path style="fill:#afaecb; stroke:none;" d="M265 260L266 261L265 260M340 260L341 261L340 260z"/>
<path style="fill:#4e84b8; stroke:none;" d="M365 260L366 261L365 260M585 260L586 261L585 260z"/>
<path style="fill:#afaecb; stroke:none;" d="M640 260L641 261L640 260M660 260L661 261L660 260z"/>
<path style="fill:#4e84b8; stroke:none;" d="M685.333 260.667L685.667 261.333L685.333 260.667z"/>
<path style="fill:#afaecb; stroke:none;" d="M700 260L701 261L700 260z"/>
<path style="fill:#4e84b8; stroke:none;" d="M716 260L717 261L716 260M739 260L740 261L739 260M129 261L130 262L129 261z"/>
<path style="fill:#afaecb; stroke:none;" d="M204 261L204 264L205 264L204 261M266 261L267 262L266 261z"/>
<path style="fill:#4e84b8; stroke:none;" d="M292 261L292 264L293 264L292 261M340 261L341 262L340 261z"/>
<path style="fill:#afaecb; stroke:none;" d="M365 261L366 262L365 261z"/>
<path style="fill:#4e84b8; stroke:none;" d="M478.333 261.667L478.667 262.333L478.333 261.667z"/>
<path style="fill:#afaecb; stroke:none;" d="M504 261L505 262L504 261M566 261L567 262L566 261M583 261L584 262L583 261M641 261L642 262L641 261M699 261L700 262L699 261M715 261L716 262L715 261M739 261L740 262L739 261M114.333 262.667L114.667 263.333L114.333 262.667M128 262L129 263L128 262M267 262L268 263L267 262z"/>
<path style="fill:#4e84b8; stroke:none;" d="M315 262L315 265L316 265L315 262z"/>
<path style="fill:#afaecb; stroke:none;" d="M339 262L340 263L339 262z"/>
<path style="fill:#4e84b8; stroke:none;" d="M364 262L365 263L364 262z"/>
<path style="fill:#afaecb; stroke:none;" d="M411 262L411 265L412 265L411 262z"/>
<path style="fill:#4e84b8; stroke:none;" d="M504 262L505 263L504 262z"/>
<path style="fill:#afaecb; stroke:none;" d="M565 262L566 263L565 262M582 262L583 263L582 262M642 262L643 263L642 262z"/>
<path style="fill:#4e84b8; stroke:none;" d="M661 262L662 263L661 262z"/>
<path style="fill:#afaecb; stroke:none;" d="M686.333 262.667L686.667 263.333L686.333 262.667z"/>
<path style="fill:#4e84b8; stroke:none;" d="M715 262L716 263L715 262z"/>
<path style="fill:#afaecb; stroke:none;" d="M738 262L739 263L738 262z"/>
<path style="fill:#4e84b8; stroke:none;" d="M128.333 263.667L128.667 264.333L128.333 263.667z"/>
<path style="fill:#afaecb; stroke:none;" d="M268 263L269 264L268 263M478 263L478 266L479 266L478 263M564 263L563 265L565 265L564 263z"/>
<path style="fill:#4e84b8; stroke:none;" d="M581 263L582 264L581 263z"/>
<path style="fill:#afaecb; stroke:none;" d="M643 263L644 264L643 263M661 263L662 264L661 263z"/>
<path style="fill:#4e84b8; stroke:none;" d="M714 263L715 264L714 263M737 263L738 264L737 263z"/>
<path style="fill:#afaecb; stroke:none;" d="M113 264L109 278L110 278L113 264z"/>
<path style="fill:#4e84b8; stroke:none;" d="M204.333 264.667L204.667 265.333L204.333 264.667M268 264L269 265L268 264z"/>
<path style="fill:#afaecb; stroke:none;" d="M291 264L291 267L292 267L291 264z"/>
<path style="fill:#4e84b8; stroke:none;" d="M338 264L339 265L338 264z"/>
<path style="fill:#afaecb; stroke:none;" d="M363 264L364 265L363 264M503 264L504 265L503 264z"/>
<path style="fill:#4e84b8; stroke:none;" d="M580 264L581 265L580 264M643 264L644 265L643 264M686 264L687 265L686 264z"/>
<path style="fill:#afaecb; stroke:none;" d="M713 264L714 265L713 264M737 264L738 265L737 264z"/>
<path style="fill:#4e84b8; stroke:none;" d="M112.333 265.667L112.667 266.333L112.333 265.667z"/>
<path style="fill:#afaecb; stroke:none;" d="M127 265L128 266L127 265M190 265L190 269L191 269L190 265M269 265L270 266L269 265M315.333 265.667L315.667 266.333L315.333 265.667M337 265L338 266L337 265z"/>
<path style="fill:#4e84b8; stroke:none;" d="M362 265L363 266L362 265M411.333 265.667L411.667 266.333L411.333 265.667M503 265L504 266L503 265M579 265L580 266L579 265z"/>
<path style="fill:#afaecb; stroke:none;" d="M644 265L645 266L644 265z"/>
<path style="fill:#4e84b8; stroke:none;" d="M662 265L663 266L662 265z"/>
<path style="fill:#afaecb; stroke:none;" d="M687.333 265.667L687.667 266.333L687.333 265.667z"/>
<path style="fill:#4e84b8; stroke:none;" d="M713 265L714 266L713 265z"/>
<path style="fill:#afaecb; stroke:none;" d="M736 265L737 266L736 265z"/>
<path style="fill:#4e84b8; stroke:none;" d="M127 266L128 267L127 266M269 266L270 267L269 266M337 266L338 267L337 266z"/>
<path style="fill:#afaecb; stroke:none;" d="M362 266L363 267L362 266z"/>
<path style="fill:#4e84b8; stroke:none;" d="M477 266L477 269L478 269L477 266z"/>
<path style="fill:#afaecb; stroke:none;" d="M502.333 266.667L502.667 267.333L502.333 266.667M578 266L579 267L578 266M662 266L663 267L662 266z"/>
<path style="fill:#4e84b8; stroke:none;" d="M712 266L713 267L712 266M735 266L736 267L735 266z"/>
<path style="fill:#afaecb; stroke:none;" d="M203 267L203 270L204 270L203 267z"/>
<path style="fill:#4e84b8; stroke:none;" d="M291.333 267.667L291.667 268.333L291.333 267.667M336 267L337 268L336 267z"/>
<path style="fill:#afaecb; stroke:none;" d="M361 267L362 268L361 267M577 267L578 268L577 267M645 267L646 268L645 267z"/>
<path style="fill:#4e84b8; stroke:none;" d="M663.333 267.667L663.667 268.333L663.333 267.667M687 267L688 268L687 267z"/>
<path style="fill:#afaecb; stroke:none;" d="M711 267L712 268L711 267z"/>
<path style="fill:#4e84b8; stroke:none;" d="M111 268L112 269L111 268z"/>
<path style="fill:#afaecb; stroke:none;" d="M126 268L127 269L126 268M270 268L271 269L270 268z"/>
<path style="fill:#4e84b8; stroke:none;" d="M314.333 268.667L314.667 269.333L314.333 268.667z"/>
<path style="fill:#afaecb; stroke:none;" d="M335 268L336 269L335 268z"/>
<path style="fill:#4e84b8; stroke:none;" d="M360 268L361 269L360 268z"/>
<path style="fill:#afaecb; stroke:none;" d="M410.333 268.667L410.667 269.333L410.333 268.667z"/>
<path style="fill:#4e84b8; stroke:none;" d="M502 268L503 269L502 268M577 268L578 269L577 268M645 268L646 269L645 268M711 268L712 269L711 268z"/>
<path style="fill:#afaecb; stroke:none;" d="M734 268L735 269L734 268z"/>
<path style="fill:#4e84b8; stroke:none;" d="M126 269L127 270L126 269M175 269L175 351L176 351L176 294L175 269M270 269L270 273L271 273L270 269M335 269L336 270L335 269z"/>
<path style="fill:#afaecb; stroke:none;" d="M360 269L361 270L360 269M477.333 269.667L477.667 270.333L477.333 269.667M501 269L502 270L501 269M551 269L551 351L552 351L552 294L551 269M576 269L577 270L576 269M646 269L647 270L646 269M663 269L664 270L663 269M688 269L689 270L688 269z"/>
<path style="fill:#4e84b8; stroke:none;" d="M710 269L711 270L710 269M733 269L734 270L733 269M110.333 270.667L110.667 271.333L110.333 270.667M203.333 270.667L203.667 271.333L203.333 270.667z"/>
<path style="fill:#afaecb; stroke:none;" d="M290.333 270.667L290.667 271.333L290.333 270.667M314 270L314 273L315 273L314 270M334 270L335 271L334 270z"/>
<path style="fill:#4e84b8; stroke:none;" d="M359 270L360 271L359 270M410 270L410 273L411 273L410 270M501.333 270.667L501.667 271.333L501.333 270.667M646 270L646 273L647 273L646 270M664.333 270.667L664.667 271.333L664.333 270.667M688 270L689 271L688 270z"/>
<path style="fill:#afaecb; stroke:none;" d="M709 270L710 271L709 270z"/>
<path style="fill:#4e84b8; stroke:none;" d="M732 270L733 271L732 270z"/>
<path style="fill:#afaecb; stroke:none;" d="M125 271L126 272L125 271M333 271L334 272L333 271z"/>
<path style="fill:#4e84b8; stroke:none;" d="M358 271L359 272L358 271z"/>
<path style="fill:#afaecb; stroke:none;" d="M575 271L576 272L575 271z"/>
<path style="fill:#4e84b8; stroke:none;" d="M709 271L710 272L709 271z"/>
<path style="fill:#afaecb; stroke:none;" d="M732 271L733 272L732 271z"/>
<path style="fill:#4e84b8; stroke:none;" d="M125 272L126 273L125 272M290 272L290 275L291 275L290 272M333 272L334 273L333 272z"/>
<path style="fill:#afaecb; stroke:none;" d="M358 272L359 273L358 272z"/>
<path style="fill:#4e84b8; stroke:none;" d="M476.333 272.667L476.667 273.333L476.333 272.667z"/>
<path style="fill:#afaecb; stroke:none;" d="M500 272L501 273L500 272M664 272L665 273L664 272M689 272L690 273L689 272z"/>
<path style="fill:#4e84b8; stroke:none;" d="M708 272L709 273L708 272M731 272L732 273L731 272M109.333 273.667L109.667 274.333L109.333 273.667z"/>
<path style="fill:#afaecb; stroke:none;" d="M124.333 273.667L124.667 274.333L124.333 273.667M202.333 273.667L202.667 274.333L202.333 273.667M271.333 273.667L271.667 274.333L271.333 273.667z"/>
<path style="fill:#4e84b8; stroke:none;" d="M313 273L313 276L314 276L313 273z"/>
<path style="fill:#afaecb; stroke:none;" d="M332 273L333 274L332 273z"/>
<path style="fill:#4e84b8; stroke:none;" d="M357 273L358 274L357 273M500 273L501 274L500 273z"/>
<path style="fill:#afaecb; stroke:none;" d="M574 273L575 274L574 273z"/>
<path style="fill:#4e84b8; stroke:none;" d="M607 273L607 274L610 274L607 273z"/>
<path style="fill:#afaecb; stroke:none;" d="M610.667 273.333L611.333 273.667L610.667 273.333z"/>
<path style="fill:#4e84b8; stroke:none;" d="M612.667 273.333L613.333 273.667L612.667 273.333M665.333 273.667L665.667 274.333L665.333 273.667M689.333 273.667L689.667 274.333L689.333 273.667z"/>
<path style="fill:#afaecb; stroke:none;" d="M707 273L708 274L707 273z"/>
<path style="fill:#4e84b8; stroke:none;" d="M730 273L731 274L730 273M332 274L333 275L332 274z"/>
<path style="fill:#afaecb; stroke:none;" d="M357 274L358 275L357 274M409.333 274.667L409.667 275.333L409.333 274.667M476 274L477 275L476 274z"/>
<path style="fill:#4e84b8; stroke:none;" d="M574 274L575 275L574 274M602 274L603 275L602 274z"/>
<path style="fill:#afaecb; stroke:none;" d="M603 274L604 275L603 274z"/>
<path style="fill:#4e84b8; stroke:none;" d="M617 274L618 275L617 274z"/>
<path style="fill:#afaecb; stroke:none;" d="M647 274L647 279L648 279L647 274z"/>
<path style="fill:#4e84b8; stroke:none;" d="M707 274L708 275L707 274z"/>
<path style="fill:#afaecb; stroke:none;" d="M730 274L731 275L730 274z"/>
<path style="fill:#4e84b8; stroke:none;" d="M7 275L7 306L8 306C9.30254 298.106 10.0934 282.372 7 275M124 275L125 276L124 275M202 275L202 278L203 278L202 275z"/>
<path style="fill:#afaecb; stroke:none;" d="M226 275L226 276L239 276L226 275z"/>
<path style="fill:#4e84b8; stroke:none;" d="M239 275L240 276L239 275M331 275L332 276L331 275z"/>
<path style="fill:#afaecb; stroke:none;" d="M356 275L357 276L356 275M433 275L433 276L476 276C464.774 271.29 445.219 275 433 275M499 275L500 276L499 275z"/>
<path style="fill:#4e84b8; stroke:none;" d="M600 275L601 276L600 275M619 275L620 276L619 275z"/>
<path style="fill:#afaecb; stroke:none;" d="M665 275L666 276L665 275M690 275L691 276L690 275z"/>
<path style="fill:#4e84b8; stroke:none;" d="M706 275L707 276L706 275z"/>
<path style="fill:#afaecb; stroke:none;" d="M729 275L730 276L729 275M123 276L124 277L123 276z"/>
<path style="fill:#4e84b8; stroke:none;" d="M225 276L225 279L226 279L225 276z"/>
<path style="fill:#fcfcf7; stroke:none;" d="M226 276L223 299C228.537 299 236.07 299.789 240.786 296.262C246.034 292.337 247.175 280.565 240.891 277.028C236.94 274.803 230.397 276 226 276z"/>
<path style="fill:#afaecb; stroke:none;" d="M241 276L242 277L241 276z"/>
<path style="fill:#4e84b8; stroke:none;" d="M270 276L270 280L271 280L270 276z"/>
<path style="fill:#afaecb; stroke:none;" d="M289.333 276.667L289.667 277.333L289.333 276.667M313.333 276.667L313.667 277.333L313.333 276.667M330 276L331 277L330 276z"/>
<path style="fill:#4e84b8; stroke:none;" d="M355 276L356 277L355 276M409 276L409 279L410 279L409 276M499 276L500 277L499 276z"/>
<path style="fill:#afaecb; stroke:none;" d="M573 276L574 277L573 276M599 276L600 277L599 276M620 276L621 277L620 276z"/>
<path style="fill:#4e84b8; stroke:none;" d="M666 276L667 277L666 276M690.333 276.667L690.667 277.333L690.333 276.667z"/>
<path style="fill:#afaecb; stroke:none;" d="M705 276L706 277L705 276z"/>
<path style="fill:#4e84b8; stroke:none;" d="M728 276L729 277L728 276M108.333 277.667L108.667 278.333L108.333 277.667M123.333 277.667L123.667 278.333L123.333 277.667z"/>
<path style="fill:#afaecb; stroke:none;" d="M242 277L243 278L242 277z"/>
<path style="fill:#4e84b8; stroke:none;" d="M330 277L331 278L330 277z"/>
<path style="fill:#afaecb; stroke:none;" d="M355 277L356 278L355 277z"/>
<path style="fill:#4e84b8; stroke:none;" d="M432.333 277.667L432.667 278.333L432.333 277.667M573.333 277.667L573.667 278.333L573.333 277.667z"/>
<path style="fill:#afaecb; stroke:none;" d="M598 277L599 278L598 277z"/>
<path style="fill:#4e84b8; stroke:none;" d="M621 277L622 278L621 277z"/>
<path style="fill:#afaecb; stroke:none;" d="M666.333 277.667L666.667 278.333L666.333 277.667z"/>
<path style="fill:#4e84b8; stroke:none;" d="M705 277L706 278L705 277z"/>
<path style="fill:#afaecb; stroke:none;" d="M728 277L729 278L728 277z"/>
<path style="fill:#4e84b8; stroke:none;" d="M144.333 278.667L144.667 279.333L144.333 278.667z"/>
<path style="fill:#fcfcf7; stroke:none;" d="M145 278L135 312L152 312L153 278L145 278z"/>
<path style="fill:#afaecb; stroke:none;" d="M153 278L153 288L154 288L153 278M201 278L201 281L202 281L201 278M243 278L244 279L243 278z"/>
<path style="fill:#4e84b8; stroke:none;" d="M289 278L289 281L290 281L289 278z"/>
<path style="fill:#afaecb; stroke:none;" d="M329 278L330 279L329 278z"/>
<path style="fill:#4e84b8; stroke:none;" d="M354 278L355 279L354 278z"/>
<path style="fill:#afaecb; stroke:none;" d="M498 278L499 279L498 278M520 278L521 279L520 278z"/>
<path style="fill:#fcfcf7; stroke:none;" d="M511 312L528 312L529 278C516.358 278.045 511.966 300.938 511 312z"/>
<path style="fill:#4e84b8; stroke:none;" d="M529 278L529 288L530 288L529 278M597 278L598 279L597 278z"/>
<path style="fill:#afaecb; stroke:none;" d="M691.333 278.667L691.667 279.333L691.333 278.667z"/>
<path style="fill:#4e84b8; stroke:none;" d="M704 278L705 279L704 278z"/>
<path style="fill:#afaecb; stroke:none;" d="M727 278L728 279L727 278M108.333 279.667L108.667 280.333L108.333 279.667M122 279L123 280L122 279M225 279L225 282L226 282L225 279z"/>
<path style="fill:#4e84b8; stroke:none;" d="M244 279L245 280L244 279M312.333 279.667L312.667 280.333L312.333 279.667z"/>
<path style="fill:#afaecb; stroke:none;" d="M328 279L329 280L328 279z"/>
<path style="fill:#4e84b8; stroke:none;" d="M353 279L354 280L353 279z"/>
<path style="fill:#afaecb; stroke:none;" d="M408 279L408 282L409 282L408 279M432 279L432 282L433 282L432 279z"/>
<path style="fill:#4e84b8; stroke:none;" d="M498 279L499 280L498 279M622 279L623 280L622 279M646 279L646 282L647 282L646 279M667 279L668 280L667 279z"/>
<path style="fill:#afaecb; stroke:none;" d="M703 279L704 280L703 279z"/>
<path style="fill:#4e84b8; stroke:none;" d="M726 279L727 280L726 279M122.333 280.667L122.667 281.333L122.333 280.667z"/>
<path style="fill:#afaecb; stroke:none;" d="M144 280L145 281L144 280M244 280L245 281L244 280M270.333 280.667L270.667 281.333L270.333 280.667z"/>
<path style="fill:#4e84b8; stroke:none;" d="M328 280L329 281L328 280z"/>
<path style="fill:#afaecb; stroke:none;" d="M353 280L354 281L353 280z"/>
<path style="fill:#4e84b8; stroke:none;" d="M519 280L520 281L519 280z"/>
<path style="fill:#afaecb; stroke:none;" d="M572 280L572 283L573 283L572 280z"/>
<path style="fill:#4e84b8; stroke:none;" d="M596.333 280.667L596.667 281.333L596.333 280.667z"/>
<path style="fill:#afaecb; stroke:none;" d="M622 280L622 285L623 285L622 280M667.333 280.667L667.667 281.333L667.333 280.667z"/>
<path style="fill:#4e84b8; stroke:none;" d="M691 280L692 281L691 280M703 280L704 281L703 280M725 280L726 281L725 280M143.333 281.667L143.667 282.333L143.333 281.667M201.333 281.667L201.667 282.333L201.333 281.667M245.333 281.667L245.667 282.333L245.333 281.667z"/>
<path style="fill:#afaecb; stroke:none;" d="M288 281L288 284L289 284L288 281M312 281L312 284L313 284L312 281M327 281L328 282L327 281z"/>
<path style="fill:#4e84b8; stroke:none;" d="M352 281L353 282L352 281z"/>
<path style="fill:#afaecb; stroke:none;" d="M497 281L498 282L497 281M519.333 281.667L519.667 282.333L519.333 281.667z"/>
<path style="fill:#4e84b8; stroke:none;" d="M702 281L703 282L702 281z"/>
<path style="fill:#afaecb; stroke:none;" d="M725 281L726 282L725 281z"/>
<path style="fill:#4e84b8; stroke:none;" d="M107 282L107 285L108 285L107 282z"/>
<path style="fill:#afaecb; stroke:none;" d="M121 282L122 283L121 282z"/>
<path style="fill:#4e84b8; stroke:none;" d="M224 282L224 286L225 286L224 282M408.333 282.667L408.667 283.333L408.333 282.667M497 282L498 283L497 282z"/>
<path style="fill:#afaecb; stroke:none;" d="M596 282L597 283L596 282M646.333 282.667L646.667 283.333L646.333 282.667z"/>
<path style="fill:#4e84b8; stroke:none;" d="M668 282L669 283L668 282z"/>
<path style="fill:#afaecb; stroke:none;" d="M692 282L693 283L692 282M701 282L702 283L701 282z"/>
<path style="fill:#4e84b8; stroke:none;" d="M724 282L725 283L724 282M121 283L122 284L121 283z"/>
<path style="fill:#afaecb; stroke:none;" d="M143 283L144 284L143 283M245 283L245 289L246 289L245 283z"/>
<path style="fill:#4e84b8; stroke:none;" d="M269.333 283.667L269.667 284.333L269.333 283.667M326 283L327 284L326 283z"/>
<path style="fill:#afaecb; stroke:none;" d="M351 283L352 284L351 283z"/>
<path style="fill:#4e84b8; stroke:none;" d="M431.333 283.667L431.667 284.333L431.333 283.667z"/>
<path style="fill:#afaecb; stroke:none;" d="M496.333 283.667L496.667 284.333L496.333 283.667z"/>
<path style="fill:#4e84b8; stroke:none;" d="M518 283L519 284L518 283M572 283L572 290L573 290L572 283M596.333 283.667L596.667 284.333L596.333 283.667z"/>
<path style="fill:#afaecb; stroke:none;" d="M668.333 283.667L668.667 284.333L668.333 283.667z"/>
<path style="fill:#4e84b8; stroke:none;" d="M692 283L693 284L692 283M701 283L702 284L701 283M723 283L724 284L723 283z"/>
<path style="fill:#afaecb; stroke:none;" d="M200 284L200 287L201 287L200 284z"/>
<path style="fill:#4e84b8; stroke:none;" d="M288.333 284.667L288.667 285.333L288.333 284.667z"/>
<path style="fill:#afaecb; stroke:none;" d="M325 284L326 285L325 284z"/>
<path style="fill:#4e84b8; stroke:none;" d="M350 284L351 285L350 284z"/>
<path style="fill:#afaecb; stroke:none;" d="M518.333 284.667L518.667 285.333L518.333 284.667z"/>
<path style="fill:#4e84b8; stroke:none;" d="M645.333 284.667L645.667 285.333L645.333 284.667M700 284L701 285L700 284z"/>
<path style="fill:#afaecb; stroke:none;" d="M723 284L724 285L723 284M107 285L107 288L108 288L107 285M120 285L121 286L120 285z"/>
<path style="fill:#4e84b8; stroke:none;" d="M142 285L143 286L142 285z"/>
<path style="fill:#afaecb; stroke:none;" d="M269 285L269 288L270 288L269 285z"/>
<path style="fill:#4e84b8; stroke:none;" d="M311.333 285.667L311.667 286.333L311.333 285.667M325 285L326 286L325 285z"/>
<path style="fill:#afaecb; stroke:none;" d="M350 285L351 286L350 285M407.333 285.667L407.667 286.333L407.333 285.667M431 285L431 288L432 288L431 285z"/>
<path style="fill:#4e84b8; stroke:none;" d="M496 285L497 286L496 285M622 285L623 286L622 285M669 285L670 286L669 285z"/>
<path style="fill:#afaecb; stroke:none;" d="M693 285L694 286L693 285M699 285L700 286L699 285M722 285L723 286L722 285z"/>
<path style="fill:#4e84b8; stroke:none;" d="M120 286L121 287L120 286z"/>
<path style="fill:#afaecb; stroke:none;" d="M142 286L143 287L142 286M224 286L224 289L225 289L224 286z"/>
<path style="fill:#4e84b8; stroke:none;" d="M324 286L325 287L324 286z"/>
<path style="fill:#afaecb; stroke:none;" d="M349 286L350 287L349 286M495 286L496 287L495 286z"/>
<path style="fill:#4e84b8; stroke:none;" d="M517.333 286.667L517.667 287.333L517.333 286.667z"/>
<path style="fill:#afaecb; stroke:none;" d="M597 286L598 287L597 286M645 286L646 287L645 286M669 286L670 287L669 286z"/>
<path style="fill:#4e84b8; stroke:none;" d="M693.333 286.667L693.667 287.333L693.333 286.667M699 286L700 287L699 286M721 286L722 287L721 286M200.333 287.667L200.667 288.333L200.333 287.667z"/>
<path style="fill:#afaecb; stroke:none;" d="M287.333 287.667L287.667 288.333L287.333 287.667M311 287L311 290L312 290L311 287M323 287L324 288L323 287z"/>
<path style="fill:#4e84b8; stroke:none;" d="M348 287L349 288L348 287M407 287L407 290L408 290L407 287z"/>
<path style="fill:#afaecb; stroke:none;" d="M480 287L482 289L482 287L480 287z"/>
<path style="fill:#4e84b8; stroke:none;" d="M495.333 287.667L495.667 288.333L495.333 287.667z"/>
<path style="fill:#afaecb; stroke:none;" d="M598 287L599 288L598 287M621 287L622 288L621 287z"/>
<path style="fill:#4e84b8; stroke:none;" d="M644 287L645 288L644 287M698 287L699 288L698 287z"/>
<path style="fill:#afaecb; stroke:none;" d="M721 287L722 288L721 287M119 288L120 289L119 288z"/>
<path style="fill:#4e84b8; stroke:none;" d="M141 288L142 289L141 288M153 288L153 300L154 300L153 288M268 288L268 291L269 291L268 288M323 288L324 289L323 288z"/>
<path style="fill:#afaecb; stroke:none;" d="M348 288L349 289L348 288z"/>
<path style="fill:#4e84b8; stroke:none;" d="M430 288L430 291L431 291L430 288z"/>
<path style="fill:#afaecb; stroke:none;" d="M477.333 288.667L477.667 289.333L477.333 288.667z"/>
<path style="fill:#4e84b8; stroke:none;" d="M478 288L479 292L480 292L478 288z"/>
<path style="fill:#1479ba; stroke:none;" d="M479 288L479 291L480 291L479 288z"/>
<path style="fill:#4e84b8; stroke:none;" d="M480.333 288.667L480.667 289.333L480.333 288.667z"/>
<path style="fill:#afaecb; stroke:none;" d="M517 288L518 289L517 288z"/>
<path style="fill:#4e84b8; stroke:none;" d="M598 288L599 289L598 288M621 288L622 289L621 288z"/>
<path style="fill:#afaecb; stroke:none;" d="M644 288L645 289L644 288z"/>
<path style="fill:#4e84b8; stroke:none;" d="M670 288L671 289L670 288M694 288L695 289L694 288z"/>
<path style="fill:#afaecb; stroke:none;" d="M695.667 288.333L696.333 288.667L695.667 288.333z"/>
<path style="fill:#4e84b8; stroke:none;" d="M697 288L698 289L697 288z"/>
<path style="fill:#afaecb; stroke:none;" d="M720 288L721 289L720 288z"/>
<path style="fill:#4e84b8; stroke:none;" d="M119 289L120 290L119 289z"/>
<path style="fill:#afaecb; stroke:none;" d="M141.333 289.667L141.667 290.333L141.333 289.667z"/>
<path style="fill:#4e84b8; stroke:none;" d="M223 289L223 292L224 292L223 289M245.333 289.667L245.667 290.333L245.333 289.667M287 289L287 292L288 292L287 289z"/>
<path style="fill:#afaecb; stroke:none;" d="M322 289L323 290L322 289z"/>
<path style="fill:#4e84b8; stroke:none;" d="M347 289L348 290L347 289z"/>
<path style="fill:#afaecb; stroke:none;" d="M494 289L495 290L494 289z"/>
<path style="fill:#4e84b8; stroke:none;" d="M516.333 289.667L516.667 290.333L516.333 289.667z"/>
<path style="fill:#afaecb; stroke:none;" d="M528 289L528 300L529 300L528 289M600 289L601 290L600 289z"/>
<path style="fill:#4e84b8; stroke:none;" d="M620 289L621 290L620 289z"/>
<path style="fill:#afaecb; stroke:none;" d="M643 289L644 290L643 289M670 289L671 290L670 289z"/>
<path style="fill:#4e84b8; stroke:none;" d="M719 289L720 290L719 289z"/>
<path style="fill:#afaecb; stroke:none;" d="M118.333 290.667L118.667 291.333L118.333 290.667M199.333 290.667L199.667 291.333L199.333 290.667z"/>
<path style="fill:#4e84b8; stroke:none;" d="M310 290L310 293L311 293L310 290z"/>
<path style="fill:#afaecb; stroke:none;" d="M321 290L322 291L321 290z"/>
<path style="fill:#4e84b8; stroke:none;" d="M346 290L347 291L346 290z"/>
<path style="fill:#afaecb; stroke:none;" d="M480.333 290.667L480.667 291.333L480.333 290.667z"/>
<path style="fill:#4e84b8; stroke:none;" d="M494 290L495 291L494 290z"/>
<path style="fill:#afaecb; stroke:none;" d="M572 290L572 293L573 293L572 290z"/>
<path style="fill:#4e84b8; stroke:none;" d="M601 290L602 291L601 290M140 291L141 292L140 291z"/>
<path style="fill:#afaecb; stroke:none;" d="M244 291L245 292L244 291M268.333 291.667L268.667 292.333L268.333 291.667z"/>
<path style="fill:#4e84b8; stroke:none;" d="M321 291L322 292L321 291z"/>
<path style="fill:#afaecb; stroke:none;" d="M346 291L347 292L346 291M406.333 291.667L406.667 292.333L406.333 291.667M430 291C430.904 295.221 435.346 294 439 294L465 294L465 293C454.857 293 439.009 296.01 430 291M478 291L478 296L479 296L478 291M516 291L517 292L516 291z"/>
<path style="fill:#4e84b8; stroke:none;" d="M603 291L604 292L603 291z"/>
<path style="fill:#afaecb; stroke:none;" d="M604 291L605 292L604 291z"/>
<path style="fill:#4e84b8; stroke:none;" d="M671 291L672 292L671 291z"/>
<path style="fill:#afaecb; stroke:none;" d="M718 291L719 292L718 291z"/>
<path style="fill:#4e84b8; stroke:none;" d="M118 292L119 293L118 292z"/>
<path style="fill:#afaecb; stroke:none;" d="M140.333 292.667L140.667 293.333L140.333 292.667z"/>
<path style="fill:#4e84b8; stroke:none;" d="M199 292L199 295L200 295L199 292z"/>
<path style="fill:#afaecb; stroke:none;" d="M223 292L223 295L224 295L223 292z"/>
<path style="fill:#4e84b8; stroke:none;" d="M244 292L245 293L244 292z"/>
<path style="fill:#afaecb; stroke:none;" d="M320 292L321 293L320 292z"/>
<path style="fill:#4e84b8; stroke:none;" d="M345 292L346 293L345 292z"/>
<path style="fill:#afaecb; stroke:none;" d="M493 292L494 293L493 292z"/>
<path style="fill:#4e84b8; stroke:none;" d="M605 292L606 293L605 292z"/>
<path style="fill:#afaecb; stroke:none;" d="M606 292L607 293L606 292M655 295L658 292L655 295M671 292L672 293L671 292z"/>
<path style="fill:#4e84b8; stroke:none;" d="M717 292L718 293L717 292z"/>
<path style="fill:#afaecb; stroke:none;" d="M117 293L118 294L117 293M243 293L244 294L243 293z"/>
<path style="fill:#4e84b8; stroke:none;" d="M267.333 293.667L267.667 294.333L267.333 293.667z"/>
<path style="fill:#afaecb; stroke:none;" d="M286.333 293.667L286.667 294.333L286.333 293.667M310.333 293.667L310.667 294.333L310.333 293.667M345 293L346 294L345 293z"/>
<path style="fill:#4e84b8; stroke:none;" d="M406 293L406 296L407 296L406 293M493 293L494 294L493 293M515 293L516 294L515 293M573.333 293.667L573.667 294.333L573.333 293.667M608 293L609 294L608 293z"/>
<path style="fill:#afaecb; stroke:none;" d="M609 293L610 294L609 293z"/>
<path style="fill:#4e84b8; stroke:none;" d="M657 293L651 304L659 301L657 293M716 293L717 294L716 293M117.333 294.667L117.667 295.333L117.333 294.667M139.333 294.667L139.667 295.333L139.333 294.667M243 294L244 295L243 294M319 294L320 295L319 294z"/>
<path style="fill:#afaecb; stroke:none;" d="M344 294L345 295L344 294z"/>
<path style="fill:#4e84b8; stroke:none;" d="M465 294L466 295L465 294z"/>
<path style="fill:#afaecb; stroke:none;" d="M515 294L516 295L515 294z"/>
<path style="fill:#4e84b8; stroke:none;" d="M612 294L613 295L612 294z"/>
<path style="fill:#afaecb; stroke:none;" d="M613 294L614 295L613 294M658 294L658 297L659 297L658 294z"/>
<path style="fill:#4e84b8; stroke:none;" d="M672 294L673 295L672 294z"/>
<path style="fill:#afaecb; stroke:none;" d="M716 294L717 295L716 294M198 295L198 298L199 298L198 295z"/>
<path style="fill:#4e84b8; stroke:none;" d="M242 295L243 296L242 295z"/>
<path style="fill:#afaecb; stroke:none;" d="M267 295L268 296L267 295z"/>
<path style="fill:#4e84b8; stroke:none;" d="M286 295L286 298L287 298L286 295M343 295L344 296L343 295z"/>
<path style="fill:#afaecb; stroke:none;" d="M465.333 295.667L465.667 296.333L465.333 295.667M492 295L493 296L492 295M573 295L574 296L573 295z"/>
<path style="fill:#4e84b8; stroke:none;" d="M616 295L617 296L616 295z"/>
<path style="fill:#afaecb; stroke:none;" d="M617 295L618 296L617 295M672 295L673 296L672 295z"/>
<path style="fill:#4e84b8; stroke:none;" d="M715 295L716 296L715 295z"/>
<path style="fill:#afaecb; stroke:none;" d="M116 296L117 297L116 296M139 296L140 297L139 296z"/>
<path style="fill:#4e84b8; stroke:none;" d="M222 296L222 299L223 299L222 296M241 296L242 297L241 296z"/>
<path style="fill:#afaecb; stroke:none;" d="M343 296L344 297L343 296M405 296L405 299L406 299L405 296z"/>
<path style="fill:#4e84b8; stroke:none;" d="M492 296L493 297L492 296M514 296L515 297L514 296M574 296L575 297L574 296M619 296L620 297L619 296z"/>
<path style="fill:#afaecb; stroke:none;" d="M620 296L621 297L620 296M654 296L655 297L654 296z"/>
<path style="fill:#4e84b8; stroke:none;" d="M714 296L715 297L714 296M116 297L117 298L116 297M138.333 297.667L138.667 298.333L138.333 297.667z"/>
<path style="fill:#afaecb; stroke:none;" d="M239 297L240 298L239 297z"/>
<path style="fill:#4e84b8; stroke:none;" d="M266 297L267 298L266 297M342 297L343 298L342 297z"/>
<path style="fill:#afaecb; stroke:none;" d="M491.333 297.667L491.667 298.333L491.333 297.667M514.333 297.667L514.667 298.333L514.333 297.667M574 297L575 298L574 297z"/>
<path style="fill:#4e84b8; stroke:none;" d="M622 297L623 298L622 297z"/>
<path style="fill:#afaecb; stroke:none;" d="M623 297L624 298L623 297M653 297L652 300L653 297z"/>
<path style="fill:#4e84b8; stroke:none;" d="M673 297L674 298L673 297z"/>
<path style="fill:#afaecb; stroke:none;" d="M714 297L715 298L714 297z"/>
<path style="fill:#4e84b8; stroke:none;" d="M198 298L198 301L199 301L198 298z"/>
<path style="fill:#afaecb; stroke:none;" d="M234.667 298.333L235.333 298.667L234.667 298.333z"/>
<path style="fill:#4e84b8; stroke:none;" d="M236.667 298.333L237.333 298.667L236.667 298.333z"/>
<path style="fill:#afaecb; stroke:none;" d="M266 298L267 299L266 298M285 298L285 301L286 301L285 298z"/>
<path style="fill:#4e84b8; stroke:none;" d="M341 298L342 299L341 298M464.333 298.667L464.667 299.333L464.333 298.667M575 298L576 299L575 298M625 298L626 299L625 298z"/>
<path style="fill:#afaecb; stroke:none;" d="M626 298L627 299L626 298M673 298L674 299L673 298M713 298L714 299L713 298M107 299L107 308L108 308L107 299M115 299L116 300L115 299M138 299L139 300L138 299z"/>
<path style="fill:#4e84b8; stroke:none;" d="M265 299L266 300L265 299z"/>
<path style="fill:#afaecb; stroke:none;" d="M341 299L342 300L341 299z"/>
<path style="fill:#4e84b8; stroke:none;" d="M405.333 299.667L405.667 300.333L405.333 299.667M491 299L492 300L491 299M513 299L514 300L513 299M576 299L577 300L576 299z"/>
<path style="fill:#afaecb; stroke:none;" d="M628 299L629 300L628 299z"/>
<path style="fill:#4e84b8; stroke:none;" d="M674.333 299.667L674.667 300.333L674.333 299.667M712 299L713 300L712 299M115 300L116 301L115 300z"/>
<path style="fill:#afaecb; stroke:none;" d="M152 300L152 311L153 311L152 300M265 300L266 301L265 300z"/>
<path style="fill:#4e84b8; stroke:none;" d="M340 300L341 301L340 300z"/>
<path style="fill:#afaecb; stroke:none;" d="M464 300L464 303L465 303L464 300M490 300L491 301L490 300M513.333 300.667L513.667 301.333L513.333 300.667z"/>
<path style="fill:#4e84b8; stroke:none;" d="M528 300L528 311L529 311L528 300z"/>
<path style="fill:#afaecb; stroke:none;" d="M576 300L577 301L576 300M630 300L631 301L630 300M651 300L652 301L651 300M712 300L713 301L712 300z"/>
<path style="fill:#4e84b8; stroke:none;" d="M137 301L138 302L137 301z"/>
<path style="fill:#afaecb; stroke:none;" d="M197 301L197 304L198 304L197 301z"/>
<path style="fill:#4e84b8; stroke:none;" d="M264 301L265 302L264 301M285.333 301.667L285.667 302.333L285.333 301.667M490.333 301.667L490.667 302.333L490.333 301.667z"/>
<path style="fill:#afaecb; stroke:none;" d="M577 301L578 302L577 301z"/>
<path style="fill:#4e84b8; stroke:none;" d="M631 301L632 302L631 301z"/>
<path style="fill:#afaecb; stroke:none;" d="M649.333 301.667L649.667 302.333L649.333 301.667z"/>
<path style="fill:#4e84b8; stroke:none;" d="M659 301L660 302L659 301z"/>
<path style="fill:#afaecb; stroke:none;" d="M674 301L675 302L674 301M711 301L712 302L711 301M114 302L115 303L114 302M137.333 302.667L137.667 303.333L137.333 302.667M264 302L265 303L264 302M339 302L339 305L340 305L339 302M404.333 302.667L404.667 303.333L404.333 302.667z"/>
<path style="fill:#4e84b8; stroke:none;" d="M512.333 302.667L512.667 303.333L512.333 302.667z"/>
<path style="fill:#afaecb; stroke:none;" d="M578 302L579 303L578 302M633 302L634 303L633 302z"/>
<path style="fill:#4e84b8; stroke:none;" d="M675.333 302.667L675.667 303.333L675.333 302.667M710 302L711 303L710 302M114 303L115 304L114 303M263 303L264 304L263 303M463 303L463 306L464 306L463 303z"/>
<path style="fill:#afaecb; stroke:none;" d="M489 303L490 304L489 303M579 303L580 304L579 303z"/>
<path style="fill:#4e84b8; stroke:none;" d="M580 303L581 304L580 303z"/>
<path style="fill:#afaecb; stroke:none;" d="M634 303L635 304L634 303z"/>
<path style="fill:#4e84b8; stroke:none;" d="M709 303L710 304L709 303z"/>
<path style="fill:#afaecb; stroke:none;" d="M113.333 304.667L113.667 305.333L113.333 304.667z"/>
<path style="fill:#4e84b8; stroke:none;" d="M136 304L137 305L136 304M197.333 304.667L197.667 305.333L197.333 304.667M262 304L263 305L262 304z"/>
<path style="fill:#afaecb; stroke:none;" d="M284.333 304.667L284.667 305.333L284.333 304.667z"/>
<path style="fill:#4e84b8; stroke:none;" d="M404 304L404 307L405 307L404 304M489 304L490 305L489 304z"/>
<path style="fill:#afaecb; stroke:none;" d="M512 304L513 305L512 304z"/>
<path style="fill:#4e84b8; stroke:none;" d="M581 304L582 305L581 304z"/>
<path style="fill:#afaecb; stroke:none;" d="M635 304L636 305L635 304M675 304L676 305L675 304M709 304L710 305L709 304M136.333 305.667L136.667 306.333L136.333 305.667M262 305L263 306L262 305z"/>
<path style="fill:#4e84b8; stroke:none;" d="M339.333 305.667L339.667 306.333L339.333 305.667z"/>
<path style="fill:#afaecb; stroke:none;" d="M564.333 305.667L564.667 306.333L564.333 305.667M582 305L583 306L582 305M636 305L637 306L636 305z"/>
<path style="fill:#4e84b8; stroke:none;" d="M676.333 305.667L676.667 306.333L676.333 305.667M708 305L709 306L708 305z"/>
<path style="fill:#afaecb; stroke:none;" d="M7 306L7 322L8 322L7 306z"/>
<path style="fill:#4e84b8; stroke:none;" d="M113 306L114 307L113 306z"/>
<path style="fill:#afaecb; stroke:none;" d="M261 306L262 307L261 306z"/>
<path style="fill:#4e84b8; stroke:none;" d="M284 306L284 309L285 309L284 306z"/>
<path style="fill:#afaecb; stroke:none;" d="M463.333 306.667L463.667 307.333L463.333 306.667M488 306L489 307L488 306z"/>
<path style="fill:#4e84b8; stroke:none;" d="M511 306L512 307L511 306M584 306L585 307L584 306M636 306L637 307L636 306M707 306L708 307L707 306z"/>
<path style="fill:#afaecb; stroke:none;" d="M112 307L113 308L112 307z"/>
<path style="fill:#4e84b8; stroke:none;" d="M135.333 307.667L135.667 308.333L135.333 307.667z"/>
<path style="fill:#afaecb; stroke:none;" d="M196.333 307.667L196.667 308.333L196.333 307.667M260 307L261 308L260 307M340 307L341 308L340 307z"/>
<path style="fill:#4e84b8; stroke:none;" d="M488 307L489 308L488 307z"/>
<path style="fill:#afaecb; stroke:none;" d="M511 307L512 308L511 307z"/>
<path style="fill:#4e84b8; stroke:none;" d="M586 307L587 308L586 307M637 307L638 308L637 307z"/>
<path style="fill:#afaecb; stroke:none;" d="M676 307L677 308L676 307M707 307L708 308L707 307z"/>
<path style="fill:#4e84b8; stroke:none;" d="M112.333 308.667L112.667 309.333L112.333 308.667z"/>
<path style="fill:#afaecb; stroke:none;" d="M259 308L260 309L259 308z"/>
<path style="fill:#4e84b8; stroke:none;" d="M340.333 308.667L340.667 309.333L340.333 308.667z"/>
<path style="fill:#afaecb; stroke:none;" d="M403.333 308.667L403.667 309.333L403.333 308.667M588 308L589 309L588 308z"/>
<path style="fill:#4e84b8; stroke:none;" d="M589 308L590 309L589 308z"/>
<path style="fill:#afaecb; stroke:none;" d="M638 308L639 309L638 308z"/>
<path style="fill:#4e84b8; stroke:none;" d="M677 308L678 309L677 308z"/>
<path style="fill:#afaecb; stroke:none;" d="M706 308L707 309L706 308M135 309L136 310L135 309z"/>
<path style="fill:#4e84b8; stroke:none;" d="M196 309L196 312L197 312L196 309M257 309L258 310L257 309z"/>
<path style="fill:#afaecb; stroke:none;" d="M258 309L259 310L258 309z"/>
<path style="fill:#4e84b8; stroke:none;" d="M462 309L462 312L463 312L462 309z"/>
<path style="fill:#afaecb; stroke:none;" d="M487 309L488 310L487 309z"/>
<path style="fill:#4e84b8; stroke:none;" d="M510 309L511 310L510 309z"/>
<path style="fill:#afaecb; stroke:none;" d="M591 309L592 310L591 309z"/>
<path style="fill:#4e84b8; stroke:none;" d="M592 309L593 310L592 309M638 309L639 310L638 309z"/>
<path style="fill:#afaecb; stroke:none;" d="M677.333 309.667L677.667 310.333L677.333 309.667z"/>
<path style="fill:#4e84b8; stroke:none;" d="M705 309L706 310L705 309z"/>
<path style="fill:#afaecb; stroke:none;" d="M111 310L112 311L111 310z"/>
<path style="fill:#4e84b8; stroke:none;" d="M134.333 310.667L134.667 311.333L134.333 310.667M256 310L257 311L256 310z"/>
<path style="fill:#afaecb; stroke:none;" d="M283.333 310.667L283.667 311.333L283.333 310.667M341.333 310.667L341.667 311.333L341.333 310.667z"/>
<path style="fill:#4e84b8; stroke:none;" d="M403 310L403 313L404 313L403 310M487 310L488 311L487 310z"/>
<path style="fill:#afaecb; stroke:none;" d="M510.333 310.667L510.667 311.333L510.333 310.667M594 310L595 311L594 310M639 310L640 311L639 310M705 310L706 311L705 310z"/>
<path style="fill:#4e84b8; stroke:none;" d="M111 311L112 312L111 311M152 311L153 312L152 311M254 311L255 312L254 311z"/>
<path style="fill:#afaecb; stroke:none;" d="M255 311L256 312L255 311M486.333 311.667L486.667 312.333L486.333 311.667M597 311L598 312L597 311z"/>
<path style="fill:#4e84b8; stroke:none;" d="M598 311L599 312L598 311M639.333 311.667L639.667 312.333L639.333 311.667M678 311L679 312L678 311z"/>
<path style="fill:#afaecb; stroke:none;" d="M704 311L705 312L704 311M195 312L195 315L196 315L195 312M254 312L255 313L254 312z"/>
<path style="fill:#4e84b8; stroke:none;" d="M283 312L283 315L284 315L283 312M341.333 312.667L341.667 313.333L341.333 312.667z"/>
<path style="fill:#afaecb; stroke:none;" d="M462.333 312.667L462.667 313.333L462.333 312.667M600 312L601 313L600 312z"/>
<path style="fill:#4e84b8; stroke:none;" d="M601 312L602 313L601 312z"/>
<path style="fill:#afaecb; stroke:none;" d="M678 312L678 317L679 317L678 312z"/>
<path style="fill:#4e84b8; stroke:none;" d="M703 312L704 313L703 312z"/>
<path style="fill:#afaecb; stroke:none;" d="M110 313L111 314L110 313z"/>
<path style="fill:#4e84b8; stroke:none;" d="M254 313L255 314L254 313z"/>
<path style="fill:#afaecb; stroke:none;" d="M402 313L402 316L403 316L402 313z"/>
<path style="fill:#4e84b8; stroke:none;" d="M486 313L487 314L486 313z"/>
<path style="fill:#afaecb; stroke:none;" d="M603 313L604 314L603 313z"/>
<path style="fill:#4e84b8; stroke:none;" d="M604 313L605 314L604 313z"/>
<path style="fill:#afaecb; stroke:none;" d="M640.333 313.667L640.667 314.333L640.333 313.667z"/>
<path style="fill:#4e84b8; stroke:none;" d="M106 314L107 315L106 314M110 314L111 315L110 314z"/>
<path style="fill:#afaecb; stroke:none;" d="M255.333 314.667L255.667 315.333L255.333 314.667M342 314L343 315L342 314M426 316L462 315L435 314L426 316M485 314L486 315L485 314M606 314L607 315L606 314z"/>
<path style="fill:#4e84b8; stroke:none;" d="M607 314L608 315L607 314M702 314L703 315L702 314z"/>
<path style="fill:#afaecb; stroke:none;" d="M106 315L106 319L107 319L106 315z"/>
<path style="fill:#4e84b8; stroke:none;" d="M195 315L195 318L196 318L195 315M219.333 315.667L219.667 316.333L219.333 315.667z"/>
<path style="fill:#afaecb; stroke:none;" d="M228 315L229 316L228 315M282 315L282 318L283 318L282 315z"/>
<path style="fill:#4e84b8; stroke:none;" d="M306 315L307 316L306 315z"/>
<path style="fill:#afaecb; stroke:none;" d="M307 315L307 316L318 317L307 315z"/>
<path style="fill:#4e84b8; stroke:none;" d="M317 315L318 316L317 315M342.333 315.667L342.667 316.333L342.333 315.667M485.333 315.667L485.667 316.333L485.333 315.667z"/>
<path style="fill:#afaecb; stroke:none;" d="M608 315L609 316L608 315z"/>
<path style="fill:#4e84b8; stroke:none;" d="M609 315L610 316L609 315M640 315L640 325L641 325L640 315z"/>
<path style="fill:#afaecb; stroke:none;" d="M702 315L702 318L703 318L702 315M109 316L110 317L109 316z"/>
<path style="fill:#4e84b8; stroke:none;" d="M229.333 316.667L229.667 317.333L229.333 316.667M255 316L256 317L255 316z"/>
<path style="fill:#afaecb; stroke:none;" d="M306.333 316.667L306.667 317.333L306.333 316.667z"/>
<path style="fill:#4e84b8; stroke:none;" d="M402.333 316.667L402.667 317.333L402.333 316.667z"/>
<path style="fill:#afaecb; stroke:none;" d="M610 316L611 317L610 316z"/>
<path style="fill:#4e84b8; stroke:none;" d="M109 317L110 318L109 317z"/>
<path style="fill:#afaecb; stroke:none;" d="M219 317L219 320L220 320L219 317z"/>
<path style="fill:#4e84b8; stroke:none;" d="M318.333 317.667L318.667 318.333L318.333 317.667z"/>
<path style="fill:#afaecb; stroke:none;" d="M343.333 317.667L343.667 318.333L343.333 317.667z"/>
<path style="fill:#4e84b8; stroke:none;" d="M425.333 317.667L425.667 318.333L425.333 317.667z"/>
<path style="fill:#afaecb; stroke:none;" d="M484 317L485 318L484 317z"/>
<path style="fill:#4e84b8; stroke:none;" d="M612 317L613 318L612 317M678.333 317.667L678.667 318.333L678.333 317.667z"/>
<path style="fill:#afaecb; stroke:none;" d="M108.333 318.667L108.667 319.333L108.333 318.667M194 318L194 321L195 321L194 318M229 318L230 319L229 318M256 318L257 319L256 318z"/>
<path style="fill:#4e84b8; stroke:none;" d="M282.333 318.667L282.667 319.333L282.333 318.667M484 318L485 319L484 318z"/>
<path style="fill:#afaecb; stroke:none;" d="M613 318L614 319L613 318z"/>
<path style="fill:#4e84b8; stroke:none;" d="M701 318L701 321L702 321L701 318M230.333 319.667L230.667 320.333L230.333 319.667M256 319L257 320L256 319M305 319L305 322L306 322L305 319z"/>
<path style="fill:#afaecb; stroke:none;" d="M318 319L319 320L318 319z"/>
<path style="fill:#4e84b8; stroke:none;" d="M343.333 319.667L343.667 320.333L343.333 319.667z"/>
<path style="fill:#afaecb; stroke:none;" d="M401.333 319.667L401.667 320.333L401.333 319.667M425 319L425 322L426 322L425 319M567 319L567 320L590 320L567 319M614 319L615 320L614 319z"/>
<path style="fill:#4e84b8; stroke:none;" d="M108 320L109 321L108 320z"/>
<path style="fill:#afaecb; stroke:none;" d="M483 320L484 321L483 320z"/>
<path style="fill:#4e84b8; stroke:none;" d="M566 320L567 321L566 320M589.333 320.667L589.667 321.333L589.333 320.667M615 320L616 321L615 320z"/>
<path style="fill:#afaecb; stroke:none;" d="M677.333 320.667L677.667 321.333L677.333 320.667M107 321L108 322L107 321z"/>
<path style="fill:#4e84b8; stroke:none;" d="M194.333 321.667L194.667 322.333L194.333 321.667M218 321L218 324L219 324L218 321z"/>
<path style="fill:#afaecb; stroke:none;" d="M230 321L231 322L230 321M257 321L258 322L257 321M281.333 321.667L281.667 322.333L281.333 321.667z"/>
<path style="fill:#4e84b8; stroke:none;" d="M319 321L320 322L319 321z"/>
<path style="fill:#afaecb; stroke:none;" d="M344 321L345 322L344 321z"/>
<path style="fill:#4e84b8; stroke:none;" d="M401 321L401 324L402 324L401 321M483 321L484 322L483 321z"/>
<path style="fill:#afaecb; stroke:none;" d="M701.333 321.667L701.667 322.333L701.333 321.667z"/>
<path style="fill:#4e84b8; stroke:none;" d="M7 322L7 391L8 391L8 344L7 322M105 322L106 323L105 322M107.333 322.667L107.667 323.333L107.333 322.667M257.333 322.667L257.667 323.333L257.333 322.667z"/>
<path style="fill:#afaecb; stroke:none;" d="M305.333 322.667L305.667 323.333L305.333 322.667M319.333 322.667L319.667 323.333L319.333 322.667z"/>
<path style="fill:#4e84b8; stroke:none;" d="M344.333 322.667L344.667 323.333L344.333 322.667z"/>
<path style="fill:#afaecb; stroke:none;" d="M565.333 322.667L565.667 323.333L565.333 322.667M589 322L589 325L590 325L589 322z"/>
<path style="fill:#4e84b8; stroke:none;" d="M616 322L617 323L616 322M677 322L677 325L678 325L677 322z"/>
<path style="fill:#afaecb; stroke:none;" d="M105 323L105 328L106 328L105 323z"/>
<path style="fill:#4e84b8; stroke:none;" d="M231 323L232 324L231 323M281 323L281 326L282 326L281 323M424.333 323.667L424.667 324.333L424.333 323.667z"/>
<path style="fill:#afaecb; stroke:none;" d="M482 323L483 324L482 323M616 323L616 326L617 326L616 323M193.333 324.667L193.667 325.333L193.333 324.667M218 324L218 327L219 327L218 324M231 324L232 325L231 324M258 324L259 325L258 324z"/>
<path style="fill:#4e84b8; stroke:none;" d="M320.333 324.667L320.667 325.333L320.333 324.667z"/>
<path style="fill:#afaecb; stroke:none;" d="M345.333 324.667L345.667 325.333L345.333 324.667z"/>
<path style="fill:#4e84b8; stroke:none;" d="M482 324L483 325L482 324M565 324L565 335L566 335L565 324M700 324L700 327L701 327L700 324M106 325L107 326L106 325M258.333 325.667L258.667 326.333L258.333 325.667M304.333 325.667L304.667 326.333L304.333 325.667z"/>
<path style="fill:#afaecb; stroke:none;" d="M400.333 325.667L400.667 326.333L400.333 325.667M424 325L424 328L425 328L424 325M481.333 325.667L481.667 326.333L481.333 325.667z"/>
<path style="fill:#4e84b8; stroke:none;" d="M589.333 325.667L589.667 326.333L589.333 325.667z"/>
<path style="fill:#afaecb; stroke:none;" d="M640 325L640 328L641 328L640 325z"/>
<path style="fill:#4e84b8; stroke:none;" d="M193 326L193 329L194 329L193 326M232 326L233 327L232 326z"/>
<path style="fill:#afaecb; stroke:none;" d="M320 326L321 327L320 326z"/>
<path style="fill:#4e84b8; stroke:none;" d="M345.333 326.667L345.667 327.333L345.333 326.667M616 326L617 327L616 326z"/>
<path style="fill:#afaecb; stroke:none;" d="M676.333 326.667L676.667 327.333L676.333 326.667z"/>
<path style="fill:#4e84b8; stroke:none;" d="M217 327L217 330L218 330L217 327z"/>
<path style="fill:#afaecb; stroke:none;" d="M232.333 327.667L232.667 328.333L232.333 327.667M259.333 327.667L259.667 328.333L259.333 327.667M280.333 327.667L280.667 328.333L280.333 327.667M304 327L304 330L305 330L304 327z"/>
<path style="fill:#4e84b8; stroke:none;" d="M400 327L400 330L401 330L400 327M481 327L482 328L481 327z"/>
<path style="fill:#afaecb; stroke:none;" d="M590 327L591 328L590 327M700.333 327.667L700.667 328.333L700.333 327.667z"/>
<path style="fill:#4e84b8; stroke:none;" d="M104 328L104 332L105 332L106 328L104 328M321 328L322 329L321 328z"/>
<path style="fill:#afaecb; stroke:none;" d="M346 328L347 329L346 328z"/>
<path style="fill:#4e84b8; stroke:none;" d="M423.333 328.667L423.667 329.333L423.333 328.667z"/>
<path style="fill:#afaecb; stroke:none;" d="M480 328L481 329L480 328z"/>
<path style="fill:#4e84b8; stroke:none;" d="M590 328L591 329L590 328M615 328L616 329L615 328M676 328L676 331L677 331L676 328z"/>
<path style="fill:#afaecb; stroke:none;" d="M192 329L192 332L193 332L192 329z"/>
<path style="fill:#4e84b8; stroke:none;" d="M233 329L234 330L233 329M259 329L260 330L259 329M280 329L280 332L281 332L280 329z"/>
<path style="fill:#afaecb; stroke:none;" d="M321.333 329.667L321.667 330.333L321.333 329.667z"/>
<path style="fill:#4e84b8; stroke:none;" d="M346.333 329.667L346.667 330.333L346.333 329.667M480.333 329.667L480.667 330.333L480.333 329.667M591 329L592 330L591 329z"/>
<path style="fill:#afaecb; stroke:none;" d="M614 329L615 330L614 329z"/>
<path style="fill:#4e84b8; stroke:none;" d="M639.333 329.667L639.667 330.333L639.333 329.667M128 330L129 331L128 330z"/>
<path style="fill:#afaecb; stroke:none;" d="M151 330L151 338L152 338L151 330M217 330L217 333L218 333L217 330M233.333 330.667L233.667 331.333L233.333 330.667M260.333 330.667L260.667 331.333L260.333 330.667z"/>
<path style="fill:#4e84b8; stroke:none;" d="M303 330L303 333L304 333L303 330z"/>
<path style="fill:#afaecb; stroke:none;" d="M399 330L399 333L400 333L399 330z"/>
<path style="fill:#4e84b8; stroke:none;" d="M466.333 330.667L466.667 331.333L466.333 330.667z"/>
<path style="fill:#afaecb; stroke:none;" d="M504 330L505 331L504 330z"/>
<path style="fill:#4e84b8; stroke:none;" d="M527 330L527 338L528 338L527 330M592 330L593 331L592 330z"/>
<path style="fill:#afaecb; stroke:none;" d="M613 330L614 331L613 330z"/>
<path style="fill:#4e84b8; stroke:none;" d="M699.333 330.667L699.667 331.333L699.333 330.667z"/>
<path style="fill:#afaecb; stroke:none;" d="M128.333 331.667L128.667 332.333L128.333 331.667z"/>
<path style="fill:#4e84b8; stroke:none;" d="M322.333 331.667L322.667 332.333L322.333 331.667z"/>
<path style="fill:#afaecb; stroke:none;" d="M347.333 331.667L347.667 332.333L347.333 331.667M479 331L480 332L479 331M594 331L595 332L594 331M611 331L612 332L611 331z"/>
<path style="fill:#4e84b8; stroke:none;" d="M612 331L613 332L612 331z"/>
<path style="fill:#afaecb; stroke:none;" d="M639 331L640 332L639 331M675 331L675 334L676 334L675 331z"/>
<path style="fill:#4e84b8; stroke:none;" d="M103.333 332.667L103.667 333.333L103.333 332.667M192 332L192 335L193 335L192 332M234.333 332.667L234.667 333.333L234.333 332.667M260 332L261 333L260 332z"/>
<path style="fill:#afaecb; stroke:none;" d="M279 332L279 335L280 335L279 332M466.333 332.667L466.667 333.333L466.333 332.667z"/>
<path style="fill:#4e84b8; stroke:none;" d="M479 332L480 333L479 332M503 332L504 333L503 332M597 332L598 333L597 332z"/>
<path style="fill:#afaecb; stroke:none;" d="M598.667 332.333L599.333 332.667L598.667 332.333M606.667 332.333L607.333 332.667L606.667 332.333z"/>
<path style="fill:#4e84b8; stroke:none;" d="M608.667 332.333L609.333 332.667L608.667 332.333M638.333 332.667L638.667 333.333L638.333 332.667z"/>
<path style="fill:#afaecb; stroke:none;" d="M699 332L699 335L700 335L699 332z"/>
<path style="fill:#4e84b8; stroke:none;" d="M127.333 333.667L127.667 334.333L127.333 333.667z"/>
<path style="fill:#afaecb; stroke:none;" d="M303.333 333.667L303.667 334.333L303.333 333.667M322 333L323 334L322 333z"/>
<path style="fill:#4e84b8; stroke:none;" d="M347.333 333.667L347.667 334.333L347.333 333.667M399.333 333.667L399.667 334.333L399.333 333.667z"/>
<path style="fill:#afaecb; stroke:none;" d="M503 333L504 334L503 333z"/>
<path style="fill:#4e84b8; stroke:none;" d="M216 334L216 337L217 337L216 334z"/>
<path style="fill:#afaecb; stroke:none;" d="M234 334L235 335L234 334M261 334L262 335L261 334M478 334L479 335L478 334M638 334L639 335L638 334z"/>
<path style="fill:#4e84b8; stroke:none;" d="M675.333 334.667L675.667 335.333L675.333 334.667z"/>
<path style="fill:#afaecb; stroke:none;" d="M127 335L128 336L127 335M191 335L191 338L192 338L191 335z"/>
<path style="fill:#4e84b8; stroke:none;" d="M235.333 335.667L235.667 336.333L235.333 335.667M261 335L262 336L261 335M279.333 335.667L279.667 336.333L279.333 335.667M323 335L324 336L323 335z"/>
<path style="fill:#afaecb; stroke:none;" d="M348 335L349 336L348 335z"/>
<path style="fill:#4e84b8; stroke:none;" d="M465.333 335.667L465.667 336.333L465.333 335.667M478 335L479 336L478 335M502 335L503 336L502 335z"/>
<path style="fill:#afaecb; stroke:none;" d="M565.333 335.667L565.667 336.333L565.333 335.667z"/>
<path style="fill:#4e84b8; stroke:none;" d="M637 335L638 336L637 335M698 335L698 338L699 338L698 335M102 336L103 337L102 336M126.333 336.667L126.667 337.333L126.333 336.667M302.333 336.667L302.667 337.333L302.333 336.667z"/>
<path style="fill:#afaecb; stroke:none;" d="M323.333 336.667L323.667 337.333L323.333 336.667z"/>
<path style="fill:#4e84b8; stroke:none;" d="M348.333 336.667L348.667 337.333L348.333 336.667z"/>
<path style="fill:#afaecb; stroke:none;" d="M398 336L398 339L399 339L398 336M502.333 336.667L502.667 337.333L502.333 336.667M637 336L638 337L637 336M216 337L216 340L217 340L216 337M235 337L236 338L235 337M262 337L263 338L262 337M465 337L465 340L466 340L465 337M477 337L478 338L477 337z"/>
<path style="fill:#4e84b8; stroke:none;" d="M566.333 337.667L566.667 338.333L566.333 337.667M636 337L637 338L636 337z"/>
<path style="fill:#afaecb; stroke:none;" d="M674.333 337.667L674.667 338.333L674.333 337.667M126 338L127 339L126 338z"/>
<path style="fill:#4e84b8; stroke:none;" d="M151 338L151 351L152 351L151 338M191.333 338.667L191.667 339.333L191.333 338.667M262.333 338.667L262.667 339.333L262.333 338.667z"/>
<path style="fill:#afaecb; stroke:none;" d="M278.333 338.667L278.667 339.333L278.333 338.667M302 338L302 341L303 341L302 338z"/>
<path style="fill:#4e84b8; stroke:none;" d="M324.333 338.667L324.667 339.333L324.333 338.667z"/>
<path style="fill:#afaecb; stroke:none;" d="M349.333 338.667L349.667 339.333L349.333 338.667z"/>
<path style="fill:#4e84b8; stroke:none;" d="M477 338L478 339L477 338M501 338L502 339L501 338z"/>
<path style="fill:#afaecb; stroke:none;" d="M526 338L526 351L527 351L526 338M636 338L637 339L636 338M698.333 338.667L698.667 339.333L698.333 338.667z"/>
<path style="fill:#4e84b8; stroke:none;" d="M236 339L237 340L236 339M398.333 339.667L398.667 340.333L398.333 339.667z"/>
<path style="fill:#afaecb; stroke:none;" d="M476.333 339.667L476.667 340.333L476.333 339.667M501.333 339.667L501.667 340.333L501.333 339.667M566 339L567 340L566 339M635 339L636 340L635 339z"/>
<path style="fill:#4e84b8; stroke:none;" d="M674 339L674 342L675 342L674 339M125 340L126 341L125 340M215 340L215 344L216 344L215 340z"/>
<path style="fill:#afaecb; stroke:none;" d="M236 340L237 341L236 340M263 340L264 341L263 340z"/>
<path style="fill:#4e84b8; stroke:none;" d="M278 340L278 343L279 343L278 340z"/>
<path style="fill:#afaecb; stroke:none;" d="M324 340L325 341L324 340z"/>
<path style="fill:#4e84b8; stroke:none;" d="M349.333 340.667L349.667 341.333L349.333 340.667M464 340L464 343L465 343L464 340M567 340L568 341L567 340M634 340L635 341L634 340z"/>
<path style="fill:#afaecb; stroke:none;" d="M125 341L126 342L125 341M190.333 341.667L190.667 342.333L190.333 341.667z"/>
<path style="fill:#4e84b8; stroke:none;" d="M263.333 341.667L263.667 342.333L263.333 341.667M301 341L301 344L302 344L301 341M476 341L477 342L476 341M500.333 341.667L500.667 342.333L500.333 341.667z"/>
<path style="fill:#afaecb; stroke:none;" d="M567 341L568 342L567 341z"/>
<path style="fill:#4e84b8; stroke:none;" d="M633 341L634 342L633 341M697 341L697 344L698 344L697 341M100 342L101 343L100 342M237 342L238 343L237 342M325 342L326 343L325 342z"/>
<path style="fill:#afaecb; stroke:none;" d="M350 342L351 343L350 342M397.333 342.667L397.667 343.333L397.333 342.667M475 342L476 343L475 342z"/>
<path style="fill:#4e84b8; stroke:none;" d="M568 342L569 343L568 342M632 342L633 343L632 342M124 343L125 344L124 343M190 343L190 346L191 346L190 343z"/>
<path style="fill:#afaecb; stroke:none;" d="M237.333 343.667L237.667 344.333L237.333 343.667M264.333 343.667L264.667 344.333L264.333 343.667M325.333 343.667L325.667 344.333L325.333 343.667z"/>
<path style="fill:#4e84b8; stroke:none;" d="M350.333 343.667L350.667 344.333L350.333 343.667z"/>
<path style="fill:#afaecb; stroke:none;" d="M464.333 343.667L464.667 344.333L464.333 343.667z"/>
<path style="fill:#4e84b8; stroke:none;" d="M475.333 343.667L475.667 344.333L475.333 343.667z"/>
<path style="fill:#afaecb; stroke:none;" d="M500 343L501 344L500 343z"/>
<path style="fill:#4e84b8; stroke:none;" d="M569 343L570 344L569 343M631 343L632 344L631 343z"/>
<path style="fill:#afaecb; stroke:none;" d="M673.333 343.667L673.667 344.333L673.333 343.667M124.333 344.667L124.667 345.333L124.333 344.667M215.333 344.667L215.667 345.333L215.333 344.667M277.333 344.667L277.667 345.333L277.333 344.667M301.333 344.667L301.667 345.333L301.333 344.667z"/>
<path style="fill:#4e84b8; stroke:none;" d="M397 344L397 347L398 347L397 344M499.333 344.667L499.667 345.333L499.333 344.667M570 344L572 346L570 344M630 344L631 345L630 344z"/>
<path style="fill:#afaecb; stroke:none;" d="M697.333 344.667L697.667 345.333L697.333 344.667M137 345L137 354L138 354L137 345z"/>
<path style="fill:#4e84b8; stroke:none;" d="M238 345L239 346L238 345M264 345L265 346L264 345M326.333 345.667L326.667 346.333L326.333 345.667z"/>
<path style="fill:#afaecb; stroke:none;" d="M351.333 345.667L351.667 346.333L351.333 345.667M474 345L475 346L474 345M570 345L571 346L570 345M629 345L630 346L629 345z"/>
<path style="fill:#4e84b8; stroke:none;" d="M673 345L673 348L674 348L673 345M123 346L124 347L123 346z"/>
<path style="fill:#afaecb; stroke:none;" d="M189 346L189 349L190 349L189 346M238.333 346.667L238.667 347.333L238.333 346.667M265.333 346.667L265.667 347.333L265.333 346.667z"/>
<path style="fill:#4e84b8; stroke:none;" d="M277 346L277 349L278 349L277 346M463 346L463 349L464 349L463 346M474 346L475 347L474 346z"/>
<path style="fill:#afaecb; stroke:none;" d="M499 346L500 347L499 346z"/>
<path style="fill:#4e84b8; stroke:none;" d="M572 346L573 347L572 346M627 346L628 347L627 346z"/>
<path style="fill:#afaecb; stroke:none;" d="M628 346L629 347L628 346z"/>
<path style="fill:#4e84b8; stroke:none;" d="M98.3333 347.667L98.6667 348.333L98.3333 347.667z"/>
<path style="fill:#afaecb; stroke:none;" d="M123.333 347.667L123.667 348.333L123.333 347.667z"/>
<path style="fill:#4e84b8; stroke:none;" d="M214 347L214 350L215 350L214 347M300 347L300 350L301 350L300 347z"/>
<path style="fill:#afaecb; stroke:none;" d="M326 347L327 348L326 347z"/>
<path style="fill:#4e84b8; stroke:none;" d="M351.333 347.667L351.667 348.333L351.333 347.667z"/>
<path style="fill:#afaecb; stroke:none;" d="M396 347L396 350L397 350L396 347M573 347L574 348L573 347M626 347L627 348L626 347z"/>
<path style="fill:#4e84b8; stroke:none;" d="M696.333 347.667L696.667 348.333L696.333 347.667M239.333 348.667L239.667 349.333L239.333 348.667M265 348L266 349L265 348z"/>
<path style="fill:#afaecb; stroke:none;" d="M473 348L474 349L473 348z"/>
<path style="fill:#4e84b8; stroke:none;" d="M498 348L499 349L498 348M575 348L576 349L575 348M623 348L624 349L623 348z"/>
<path style="fill:#afaecb; stroke:none;" d="M624 348L625 349L624 348M672 348L672 351L673 351L672 348z"/>
<path style="fill:#4e84b8; stroke:none;" d="M97.3333 349.667L97.6667 350.333L97.3333 349.667M122.333 349.667L122.667 350.333L122.333 349.667M189.333 349.667L189.667 350.333L189.333 349.667z"/>
<path style="fill:#afaecb; stroke:none;" d="M276.333 349.667L276.667 350.333L276.333 349.667z"/>
<path style="fill:#4e84b8; stroke:none;" d="M327 349L328 350L327 349z"/>
<path style="fill:#afaecb; stroke:none;" d="M352 349L353 350L352 349M463.333 349.667L463.667 350.333L463.333 349.667z"/>
<path style="fill:#4e84b8; stroke:none;" d="M473 349L474 350L473 349z"/>
<path style="fill:#afaecb; stroke:none;" d="M498 349L499 350L498 349z"/>
<path style="fill:#4e84b8; stroke:none;" d="M512 349L511 356L512 349z"/>
<path style="fill:#afaecb; stroke:none;" d="M577 349L578 350L577 349z"/>
<path style="fill:#4e84b8; stroke:none;" d="M621 349L622 350L621 349z"/>
<path style="fill:#afaecb; stroke:none;" d="M622 349L623 350L622 349M696.333 349.667L696.667 350.333L696.333 349.667M214 350L215 351L214 350M239 350L240 351L239 350M266 350L267 351L266 350M300 350L301 351L300 350M327 350L328 351L327 350z"/>
<path style="fill:#4e84b8; stroke:none;" d="M352 350L353 351L352 350M396 350L397 351L396 350z"/>
<path style="fill:#afaecb; stroke:none;" d="M511 350L511 353L512 353L511 350M580 350L581 351L580 350M618.667 350.333L619.333 350.667L618.667 350.333M96 351L97 352L96 351z"/>
<path style="fill:#4e84b8; stroke:none;" d="M136 351L135 356C138.237 355.292 137.775 353.398 136 351z"/>
<path style="fill:#afaecb; stroke:none;" d="M583.667 351.333L584.333 351.667L583.667 351.333z"/>
<path style="fill:#4e84b8; stroke:none;" d="M585 351L586 352L585 351M613 351L614 352L613 351z"/>
<path style="fill:#afaecb; stroke:none;" d="M614.667 351.333L615.333 351.667L614.667 351.333M589 352L589 353L593 353L589 352z"/>
<path style="fill:#4e84b8; stroke:none;" d="M593 352L593 353L606 353L593 352z"/>
<path style="fill:#afaecb; stroke:none;" d="M606 352L606 353L610 353L606 352M95 353L96 354L95 353z"/>
<path style="fill:#4e84b8; stroke:none;" d="M313 353L314 358L315 358L313 353M93 356L94 357L93 356z"/>
<path style="fill:#afaecb; stroke:none;" d="M563 356L565 358L563 356z"/>
<path style="fill:#4e84b8; stroke:none;" d="M226 357L226 359L228 359L228 357L226 357M312 357L313 358L312 357M563 357L563 359L565 359L563 357z"/>
<path style="fill:#afaecb; stroke:none;" d="M92 358L93 359L92 358z"/>
<path style="fill:#4e84b8; stroke:none;" d="M91 359L92 360L91 359M90 360L91 361L90 360M89 362L90 363L89 362M88 363L89 364L88 363M87 364L88 365L87 364M86 365L87 366L86 365M85 366L86 367L85 366M84 367L85 368L84 367M83 368L84 369L83 368M82 369L83 370L82 369M81 370L82 371L81 370z"/>
<path style="fill:#afaecb; stroke:none;" d="M80 371L81 372L80 371M79 372L80 373L79 372z"/>
<path style="fill:#4e84b8; stroke:none;" d="M77 373L78 374L77 373M76 374L77 375L76 374M74 375L75 376L74 375z"/>
<path style="fill:#afaecb; stroke:none;" d="M75 375L76 376L75 375z"/>
<path style="fill:#4e84b8; stroke:none;" d="M73 376L74 377L73 376M71 377L72 378L71 377z"/>
<path style="fill:#afaecb; stroke:none;" d="M72 377L73 378L72 377M70 378L71 379L70 378M68 379L69 380L68 379M66 380L67 381L66 380z"/>
<path style="fill:#4e84b8; stroke:none;" d="M63 381L64 382L63 381z"/>
<path style="fill:#afaecb; stroke:none;" d="M64 381L65 382L64 381z"/>
<path style="fill:#4e84b8; stroke:none;" d="M61 382L62 383L61 382z"/>
<path style="fill:#afaecb; stroke:none;" d="M62 382L63 383L62 382z"/>
<path style="fill:#4e84b8; stroke:none;" d="M58 383L59 384L58 383z"/>
<path style="fill:#afaecb; stroke:none;" d="M59 383L60 384L59 383z"/>
<path style="fill:#4e84b8; stroke:none;" d="M56 384L57 385L56 384z"/>
<path style="fill:#afaecb; stroke:none;" d="M57 384L58 385L57 384z"/>
<path style="fill:#4e84b8; stroke:none;" d="M52 385L53 386L52 385z"/>
<path style="fill:#afaecb; stroke:none;" d="M53.6667 385.333L54.3333 385.667L53.6667 385.333z"/>
<path style="fill:#4e84b8; stroke:none;" d="M49 386L50 387L49 386z"/>
<path style="fill:#afaecb; stroke:none;" d="M50 386L51 387L50 386z"/>
<path style="fill:#4e84b8; stroke:none;" d="M44.6667 387.333L45.3333 387.667L44.6667 387.333z"/>
<path style="fill:#afaecb; stroke:none;" d="M46 387L47 388L46 387z"/>
<path style="fill:#4e84b8; stroke:none;" d="M39 388L40 389L39 388z"/>
<path style="fill:#afaecb; stroke:none;" d="M40.6667 388.333L41.3333 388.667L40.6667 388.333z"/>
<path style="fill:#4e84b8; stroke:none;" d="M31 389L31 390L34 390L31 389z"/>
<path style="fill:#afaecb; stroke:none;" d="M34.6667 389.333L35.3333 389.667L34.6667 389.333z"/>
<path style="fill:#4e84b8; stroke:none;" d="M14 390L14 391L22 391L14 390z"/>
<path style="fill:#afaecb; stroke:none;" d="M22 390L22 391L27 391L22 390z"/>
</svg>
